<?xml version="1.0" encoding="UTF-8" standalone="no"?>
<!-- Generator: Adobe Illustrator 15.0.0, SVG Export Plug-In . SVG Version: 6.00 Build 0)  -->

<svg
   xmlns:dc="http://purl.org/dc/elements/1.1/"
   xmlns:cc="http://creativecommons.org/ns#"
   xmlns:rdf="http://www.w3.org/1999/02/22-rdf-syntax-ns#"
   xmlns:svg="http://www.w3.org/2000/svg"
   xmlns="http://www.w3.org/2000/svg"
   xmlns:sodipodi="http://sodipodi.sourceforge.net/DTD/sodipodi-0.dtd"
   xmlns:inkscape="http://www.inkscape.org/namespaces/inkscape"
   version="1.1"
   x="0px"
   y="0px"
   width="40px"
   height="40px"
   viewBox="0 0 40 40"
   enable-background="new 0 0 40 40"
   xml:space="preserve"
   id="svg2"
   inkscape:version="0.48.3.1 r9886"
   sodipodi:docname="bs.svg"
   inkscape:export-filename="M:\Themen\Icons\Portale\schulweg-routing\bs.png"
   inkscape:export-xdpi="90"
   inkscape:export-ydpi="90"><metadata
   id="metadata17"><rdf:RDF><cc:Work
       rdf:about=""><dc:format>image/svg+xml</dc:format><dc:type
         rdf:resource="http://purl.org/dc/dcmitype/StillImage" /><dc:title></dc:title></cc:Work></rdf:RDF></metadata><defs
   id="defs15" /><sodipodi:namedview
   pagecolor="#ffffff"
   bordercolor="#666666"
   borderopacity="1"
   objecttolerance="10"
   gridtolerance="10"
   guidetolerance="10"
   inkscape:pageopacity="0"
   inkscape:pageshadow="2"
   inkscape:window-width="1220"
   inkscape:window-height="946"
   id="namedview13"
   showgrid="false"
   inkscape:zoom="19.85"
   inkscape:cx="11.864398"
   inkscape:cy="19.43232"
   inkscape:window-x="1308"
   inkscape:window-y="5"
   inkscape:window-maximized="0"
   inkscape:current-layer="layer1" />
<g
   id="Ebene_7"
   style="fill:#4e3e9a;fill-opacity:1;stroke:#2d237b;stroke-opacity:1">
	<path
   clip-rule="evenodd"
   stroke-miterlimit="10"
   d="   M37.162,38.234c0,0.38-0.392,0.703-0.782,0.703H5.313c-0.387,0-1.111-0.607-1.111-0.987L3.938,20C3.938,19.34,2,19.125,2,19.125   S19.195,1.666,19.449,1.416c0.335-0.32,0.79-0.218,1.006-0.009C20.621,1.567,38.36,18.958,38.36,18.958s-1.296,0.499-1.254,1.117   L37.162,38.234z"
   id="path5"
   style="fill:#4e3e9a;fill-opacity:1;stroke:#2d237b;stroke-opacity:1"
   stroke-width="2"
   stroke="#4D6523"
   fill-rule="evenodd"
   fill="#85A044" />
</g>
<g
   id="Ebene_9"
   style="fill:#e6e1ef;fill-opacity:1">
	<polygon
   clip-rule="evenodd"
   points="20,2.369 3.958,18.583 5.486,20 21.575,3.933  "
   id="polygon8"
   style="fill:#e6e1ef;fill-opacity:1"
   fill-rule="evenodd"
   fill="#F2F9D7" />
</g>
<g
   id="Ebene_8"
   style="fill:#39288f;fill-opacity:1"
   transform="matrix(1,0.00324789,0,1,0.05037783,-0.06688079)">
	<path
   clip-rule="evenodd"
   d="m 36.103,37.915 c -0.774,0.007 -1.194,0.035 -1.566,0.035 H 5.625 C 5.02,38.03 5.083,37.656 5.083,37.542 l 0.042,-6.25 c 0,-0.202 1.482,-0.821 1.482,-0.821 0,0 12.561,-3.924 12.872,-4.022 0.318,-0.098 0.75,-0.065 0.955,-0.004 0.205,0.064 14.516,4.568 14.516,4.568 0,0 1.114,0.233 1.152,0.425 v 6.477 z"
   id="path11"
   style="fill:#39288f;fill-opacity:1;fill-rule:evenodd"
   inkscape:connector-curvature="0" />
</g>
<g
   inkscape:groupmode="layer"
   id="layer1"
   inkscape:label="Text"><g
   transform="scale(0.9308048,1.0743391)"
   style="font-size:20.34192657px;font-style:normal;font-variant:normal;font-weight:normal;font-stretch:normal;line-height:125%;letter-spacing:0px;word-spacing:0px;fill:#ffffff;fill-opacity:1;stroke:none;font-family:Arial;-inkscape-font-specification:Arial"
   id="text3767"><path
     d="m 21.351562,27.865577 c -10e-6,0.622445 -0.120856,1.173703 -0.362539,1.653775 -0.241703,0.480076 -0.586032,0.885656 -1.032989,1.216741 -0.446974,0.331087 -0.986644,0.582712 -1.61901,0.754876 -0.632381,0.172165 -1.335938,0.258247 -2.110674,0.258247 l -3.396943,0 0,-12.981884 3.714786,0 c 2.893683,1.3e-5 4.340528,1.052866 4.340538,3.158561 -10e-6,0.701912 -0.167208,1.304488 -0.501596,1.80773 -0.334405,0.503258 -0.879041,0.877385 -1.633909,1.122382 0.350943,0.06622 0.683684,0.178793 0.998224,0.337707 0.314523,0.158928 0.59098,0.364201 0.829371,0.61582 0.238372,0.251632 0.427091,0.549609 0.566157,0.893933 0.139046,0.344334 0.208574,0.731704 0.208584,1.162112 z m -2.304359,-5.701302 c -8e-6,-0.264859 -0.03974,-0.514829 -0.119191,-0.74991 -0.07947,-0.23506 -0.218524,-0.437023 -0.417168,-0.605887 -0.198659,-0.168843 -0.466838,-0.302933 -0.804539,-0.40227 -0.337714,-0.09931 -0.764815,-0.148977 -1.281303,-0.148989 l -1.827595,0 0,4.062426 1.767999,0 c 0.40392,8e-6 0.769769,-0.04303 1.09755,-0.129123 0.327769,-0.08608 0.609192,-0.218509 0.84427,-0.397304 0.235064,-0.178778 0.417161,-0.402261 0.546292,-0.670449 0.129116,-0.268171 0.193677,-0.587668 0.193685,-0.958494 z m 0.427101,5.760897 c -8e-6,-0.331082 -0.06954,-0.629059 -0.208584,-0.893932 -0.139064,-0.264864 -0.341026,-0.488347 -0.605888,-0.670449 -0.264876,-0.182092 -0.587684,-0.322803 -0.968426,-0.422135 -0.380755,-0.09932 -0.809511,-0.148983 -1.28627,-0.148989 l -1.807729,0 0,4.469662 1.867325,0 c 1.013117,10e-7 1.767992,-0.188717 2.264629,-0.566157 0.496621,-0.377436 0.744935,-0.966768 0.744943,-1.768 z"
     style="fill:#ffffff;font-family:Consolas;-inkscape-font-specification:Consolas"
     id="path2991" /><path
     d="m 32.366795,28.233082 c -1e-5,0.615823 -0.125823,1.155493 -0.377438,1.619011 -0.251635,0.463522 -0.602586,0.849237 -1.052854,1.157146 -0.450285,0.30791 -0.99161,0.538015 -1.623977,0.690314 -0.632381,0.1523 -1.329316,0.228449 -2.090808,0.22845 -0.344334,-1e-6 -0.687008,-0.01324 -1.028023,-0.03973 -0.341022,-0.02649 -0.668796,-0.0596 -0.983325,-0.09933 -0.314534,-0.03973 -0.610856,-0.08608 -0.888966,-0.139056 -0.278114,-0.05297 -0.529739,-0.109258 -0.754876,-0.168854 l 0,-1.708404 c 0.496627,0.18541 1.054507,0.331088 1.67364,0.437034 0.619127,0.105949 1.322684,0.158923 2.110673,0.158921 0.569463,2e-6 1.054503,-0.0447 1.455123,-0.13409 0.400608,-0.08939 0.728383,-0.221825 0.983326,-0.397303 0.254929,-0.175473 0.440337,-0.389024 0.556224,-0.640651 0.115873,-0.251623 0.173813,-0.539667 0.173821,-0.864135 -8e-6,-0.350947 -0.09768,-0.65058 -0.293011,-0.898899 -0.195349,-0.248309 -0.45194,-0.470137 -0.769776,-0.665482 -0.317849,-0.195336 -0.680388,-0.374122 -1.087617,-0.53636 -0.407242,-0.162226 -0.822754,-0.329425 -1.246539,-0.501595 -0.423795,-0.172159 -0.839307,-0.359222 -1.246539,-0.561191 -0.407239,-0.201956 -0.769778,-0.440337 -1.087618,-0.715146 -0.317844,-0.274794 -0.574436,-0.597602 -0.769775,-0.968427 -0.195342,-0.370807 -0.293012,-0.811151 -0.293011,-1.321033 -1e-6,-0.443645 0.0927,-0.880678 0.278112,-1.311101 0.185407,-0.4304 0.473451,-0.812804 0.864135,-1.147213 0.390679,-0.334384 0.892273,-0.604219 1.504786,-0.809505 0.612505,-0.20526 1.342549,-0.307897 2.190134,-0.30791 0.218511,1.3e-5 0.455237,0.0099 0.71018,0.0298 0.254929,0.01988 0.513176,0.04802 0.774741,0.08443 0.26155,0.03643 0.519797,0.07782 0.774741,0.124158 0.254928,0.04637 0.491654,0.09603 0.71018,0.148988 l 0,1.589213 c -0.509881,-0.145666 -1.019753,-0.25658 -1.529618,-0.332741 -0.509879,-0.07614 -1.003197,-0.114213 -1.479954,-0.114225 -1.013129,1.2e-5 -1.758071,0.168866 -2.234831,0.506562 -0.476767,0.337719 -0.715149,0.791306 -0.715146,1.360764 -3e-6,0.35096 0.09767,0.652248 0.293011,0.903865 0.195337,0.251634 0.451929,0.476772 0.769775,0.675415 0.317838,0.19866 0.680377,0.379101 1.087618,0.541326 0.40723,0.162239 0.822743,0.329438 1.246539,0.501595 0.423783,0.172172 0.839296,0.360891 1.246539,0.566157 0.407228,0.20528 0.769766,0.448628 1.087618,0.730045 0.317833,0.281429 0.574424,0.610859 0.769775,0.988292 0.195331,0.377442 0.293001,0.824408 0.293011,1.340898 z"
     style="fill:#ffffff;font-family:Consolas;-inkscape-font-specification:Consolas"
     id="path2993" /></g>

</g></svg>