<?xml version="1.0" encoding="UTF-8" standalone="no"?>
<!-- Generator: Adobe Illustrator 15.0.0, SVG Export Plug-In . SVG Version: 6.00 Build 0)  -->

<svg
   xmlns:dc="http://purl.org/dc/elements/1.1/"
   xmlns:cc="http://creativecommons.org/ns#"
   xmlns:rdf="http://www.w3.org/1999/02/22-rdf-syntax-ns#"
   xmlns:svg="http://www.w3.org/2000/svg"
   xmlns="http://www.w3.org/2000/svg"
   xmlns:sodipodi="http://sodipodi.sourceforge.net/DTD/sodipodi-0.dtd"
   xmlns:inkscape="http://www.inkscape.org/namespaces/inkscape"
   version="1.1"
   x="0px"
   y="0px"
   width="40px"
   height="40px"
   viewBox="0 0 40 40"
   enable-background="new 0 0 40 40"
   xml:space="preserve"
   id="svg2"
   inkscape:version="0.48.3.1 r9886"
   sodipodi:docname="g.svg"
   inkscape:export-filename="M:\Themen\Icons\Portale\schulweg-routing\g.png"
   inkscape:export-xdpi="90"
   inkscape:export-ydpi="90"><metadata
   id="metadata17"><rdf:RDF><cc:Work
       rdf:about=""><dc:format>image/svg+xml</dc:format><dc:type
         rdf:resource="http://purl.org/dc/dcmitype/StillImage" /><dc:title></dc:title></cc:Work></rdf:RDF></metadata><defs
   id="defs15" /><sodipodi:namedview
   pagecolor="#ffffff"
   bordercolor="#666666"
   borderopacity="1"
   objecttolerance="10"
   gridtolerance="10"
   guidetolerance="10"
   inkscape:pageopacity="0"
   inkscape:pageshadow="2"
   inkscape:window-width="1220"
   inkscape:window-height="973"
   id="namedview13"
   showgrid="false"
   inkscape:zoom="19.85"
   inkscape:cx="10.603915"
   inkscape:cy="19.43232"
   inkscape:window-x="1295"
   inkscape:window-y="10"
   inkscape:window-maximized="0"
   inkscape:current-layer="layer1" />
<g
   id="Ebene_7"
   style="fill:#469fc3;fill-opacity:1;stroke:#0882b2;stroke-opacity:1">
	<path
   fill-rule="evenodd"
   clip-rule="evenodd"
   fill="#85A044"
   stroke="#4D6523"
   stroke-width="2"
   stroke-miterlimit="10"
   d="   M37.162,38.234c0,0.38-0.392,0.703-0.782,0.703H5.313c-0.387,0-1.111-0.607-1.111-0.987L3.938,20C3.938,19.34,2,19.125,2,19.125   S19.195,1.666,19.449,1.416c0.335-0.32,0.79-0.218,1.006-0.009C20.621,1.567,38.36,18.958,38.36,18.958s-1.296,0.499-1.254,1.117   L37.162,38.234z"
   id="path5"
   style="fill:#469fc3;fill-opacity:1;stroke:#0882b2;stroke-opacity:1" />
</g>
<g
   id="Ebene_9"
   style="fill:#daf0f9;fill-opacity:1">
	<polygon
   fill-rule="evenodd"
   clip-rule="evenodd"
   fill="#F2F9D7"
   points="20,2.369 3.958,18.583 5.486,20 21.575,3.933  "
   id="polygon8"
   style="fill:#daf0f9;fill-opacity:1" />
</g>
<g
   id="Ebene_8"
   style="fill:#238db8;fill-opacity:1">
	<path
   fill-rule="evenodd"
   clip-rule="evenodd"
   fill="#6E8630"
   d="M36.103,37.915c-0.774,0.007-1.194,0.035-1.566,0.035H5.625   c-0.605,0.08-0.542-0.294-0.542-0.408l0.042-6.25c0-0.202,1.482-0.821,1.482-0.821s12.561-3.924,12.872-4.022   c0.318-0.098,0.75-0.065,0.955-0.004c0.205,0.064,14.516,4.568,14.516,4.568s1.114,0.233,1.152,0.425V37.915z"
   id="path11"
   style="fill:#238db8;fill-opacity:1" />
</g>
<g
   inkscape:groupmode="layer"
   id="layer1"
   inkscape:label="Text"><g
   transform="scale(0.99276994,1.0072827)"
   style="font-size:32.63838577px;font-style:normal;font-variant:normal;font-weight:normal;font-stretch:normal;line-height:125%;letter-spacing:0px;word-spacing:0px;fill:#ffffff;fill-opacity:1;stroke:none;font-family:Arial;-inkscape-font-specification:Arial"
   id="text3767"><path
     d="m 25.214604,21.456519 c -0.546913,-0.292168 -1.108798,-0.518795 -1.685658,-0.679882 -0.576879,-0.161061 -1.20619,-0.241598 -1.887937,-0.241611 -0.779156,1.3e-5 -1.472148,0.138612 -2.078979,0.415796 -0.606842,0.277209 -1.118157,0.668656 -1.533949,1.174342 -0.415799,0.505708 -0.734201,1.114418 -0.955206,1.82613 -0.221012,0.711731 -0.331516,1.498371 -0.331513,2.359921 -3e-6,0.899024 0.0899,1.704394 0.269705,2.41611 0.179801,0.711727 0.460744,1.314818 0.84283,1.809274 0.382078,0.494462 0.870918,0.872798 1.466522,1.13501 0.595594,0.262215 1.309188,0.393321 2.140786,0.39332 0.142337,10e-7 0.295919,-0.0075 0.460747,-0.02248 0.164812,-0.01498 0.329631,-0.03558 0.49446,-0.06181 0.164811,-0.02622 0.324012,-0.05806 0.477603,-0.09552 0.153573,-0.03746 0.290298,-0.07866 0.410177,-0.123615 l 0,-4.674892 -3.000472,0 0,-1.651945 4.978311,0 0,7.506798 c -0.307176,0.142345 -0.631196,0.269706 -0.972063,0.382083 -0.340888,0.112377 -0.689257,0.206025 -1.045108,0.280943 -0.35587,0.07492 -0.709858,0.131106 -1.061965,0.168566 -0.352123,0.03746 -0.693,0.05619 -1.022633,0.05619 -1.003909,0 -1.908545,-0.157328 -2.71391,-0.471984 -0.805373,-0.314656 -1.490874,-0.781021 -2.056503,-1.399097 -0.565634,-0.618072 -1.000158,-1.387855 -1.303575,-2.309351 -0.30342,-0.921489 -0.455129,-1.989071 -0.455128,-3.202751 -1e-6,-1.206174 0.168565,-2.286867 0.505697,-3.242083 0.33713,-0.955195 0.810987,-1.76431 1.421572,-2.427348 0.61058,-0.663012 1.344777,-1.168709 2.202594,-1.517092 0.857807,-0.348355 1.803647,-0.522539 2.837524,-0.522554 0.659272,1.5e-5 1.286711,0.05808 1.882319,0.174184 0.595589,0.116138 1.166839,0.30156 1.713752,0.556268 z"
     style="font-size:23.01485443px;fill:#ffffff;font-family:Consolas;-inkscape-font-specification:Consolas"
     id="path2991" /></g>


</g></svg>