<?xml version="1.0" encoding="UTF-8" standalone="no"?>
<!-- Generator: Adobe Illustrator 15.0.0, SVG Export Plug-In . SVG Version: 6.00 Build 0)  -->

<svg
   xmlns:dc="http://purl.org/dc/elements/1.1/"
   xmlns:cc="http://creativecommons.org/ns#"
   xmlns:rdf="http://www.w3.org/1999/02/22-rdf-syntax-ns#"
   xmlns:svg="http://www.w3.org/2000/svg"
   xmlns="http://www.w3.org/2000/svg"
   xmlns:sodipodi="http://sodipodi.sourceforge.net/DTD/sodipodi-0.dtd"
   xmlns:inkscape="http://www.inkscape.org/namespaces/inkscape"
   version="1.1"
   x="0px"
   y="0px"
   width="40px"
   height="40px"
   viewBox="0 0 40 40"
   enable-background="new 0 0 40 40"
   xml:space="preserve"
   id="svg2"
   inkscape:version="0.48.3.1 r9886"
   sodipodi:docname="gym.svg"
   inkscape:export-filename="M:\Themen\Icons\Portale\schulweg-routing\gym.png"
   inkscape:export-xdpi="90"
   inkscape:export-ydpi="90"><metadata
   id="metadata17"><rdf:RDF><cc:Work
       rdf:about=""><dc:format>image/svg+xml</dc:format><dc:type
         rdf:resource="http://purl.org/dc/dcmitype/StillImage" /><dc:title></dc:title></cc:Work></rdf:RDF></metadata><defs
   id="defs15" /><sodipodi:namedview
   pagecolor="#ffffff"
   bordercolor="#666666"
   borderopacity="1"
   objecttolerance="10"
   gridtolerance="10"
   guidetolerance="10"
   inkscape:pageopacity="0"
   inkscape:pageshadow="2"
   inkscape:window-width="1220"
   inkscape:window-height="973"
   id="namedview13"
   showgrid="false"
   inkscape:zoom="19.85"
   inkscape:cx="20.755877"
   inkscape:cy="19.43232"
   inkscape:window-x="1407"
   inkscape:window-y="8"
   inkscape:window-maximized="0"
   inkscape:current-layer="layer1" />
<g
   id="Ebene_7"
   style="fill:#df2323;fill-opacity:1;stroke:#b5060d;stroke-opacity:1"
   inkscape:export-filename="M:\Themen\Icons\Portale\schulweg-routing\so.png"
   inkscape:export-xdpi="90"
   inkscape:export-ydpi="90">
	<path
   clip-rule="evenodd"
   stroke-miterlimit="10"
   d="   M37.162,38.234c0,0.38-0.392,0.703-0.782,0.703H5.313c-0.387,0-1.111-0.607-1.111-0.987L3.938,20C3.938,19.34,2,19.125,2,19.125   S19.195,1.666,19.449,1.416c0.335-0.32,0.79-0.218,1.006-0.009C20.621,1.567,38.36,18.958,38.36,18.958s-1.296,0.499-1.254,1.117   L37.162,38.234z"
   id="path5"
   style="fill:#df2323;fill-opacity:1;stroke:#b5060d;stroke-opacity:1"
   stroke-width="2"
   stroke="#4D6523"
   fill-rule="evenodd"
   fill="#85A044" />
</g>
<g
   id="Ebene_9"
   style="fill:#fadddf;fill-opacity:1">
	<polygon
   clip-rule="evenodd"
   points="20,2.369 3.958,18.583 5.486,20 21.575,3.933  "
   id="polygon8"
   style="fill:#fadddf;fill-opacity:1"
   fill-rule="evenodd"
   fill="#F2F9D7" />
</g>
<g
   id="Ebene_8"
   style="fill:#c81411;fill-opacity:1"
   transform="matrix(1,0.00324789,0,1,0.05037783,-0.06688079)">
	<path
   clip-rule="evenodd"
   d="m 36.103,37.915 c -0.774,0.007 -1.194,0.035 -1.566,0.035 H 5.625 C 5.02,38.03 5.083,37.656 5.083,37.542 l 0.042,-6.25 c 0,-0.202 1.482,-0.821 1.482,-0.821 0,0 12.561,-3.924 12.872,-4.022 0.318,-0.098 0.75,-0.065 0.955,-0.004 0.205,0.064 14.516,4.568 14.516,4.568 0,0 1.114,0.233 1.152,0.425 v 6.477 z"
   id="path11"
   style="fill:#c81411;fill-opacity:1;fill-rule:evenodd"
   inkscape:connector-curvature="0" />
</g>
<g
   inkscape:groupmode="layer"
   id="layer1"
   inkscape:label="Text"><g
   transform="scale(0.89761071,1.1140687)"
   style="font-size:19.61649704px;font-style:normal;font-variant:normal;font-weight:normal;font-stretch:normal;line-height:125%;letter-spacing:0px;word-spacing:0px;fill:#ffffff;fill-opacity:1;stroke:none;font-family:Arial;-inkscape-font-specification:Arial"
   id="text3767"><path
     d="m 16.364852,20.243611 c -0.466157,-0.249027 -0.945074,-0.44219 -1.436755,-0.579491 -0.491698,-0.137279 -1.028086,-0.205924 -1.609166,-0.205935 -0.664106,1.1e-5 -1.254772,0.118144 -1.771998,0.3544 -0.517236,0.236277 -0.953052,0.569923 -1.307447,1.000939 -0.3544031,0.431036 -0.6257899,0.949864 -0.8141616,1.556485 -0.188377,0.606637 -0.2825642,1.277122 -0.2825618,2.011457 -2.4e-6,0.766275 0.076624,1.452724 0.2298808,2.059349 0.1532511,0.606634 0.39271,1.120672 0.7183776,1.542117 0.325661,0.421451 0.742319,0.743922 1.249977,0.967415 0.507648,0.223497 1.115874,0.335245 1.824679,0.335243 0.121319,2e-6 0.252224,-0.0064 0.392713,-0.01916 0.140476,-0.01277 0.280958,-0.03033 0.421448,-0.05268 0.140476,-0.02235 0.276169,-0.04949 0.407081,-0.08142 0.130896,-0.03193 0.247433,-0.06705 0.34961,-0.105362 l 0,-3.984601 -2.557424,0 0,-1.40802 4.243217,0 0,6.39835 c -0.261818,0.121326 -0.537994,0.229881 -0.828529,0.325664 -0.290552,0.09578 -0.587481,0.175604 -0.890788,0.23946 -0.303323,0.06386 -0.605041,0.111747 -0.905156,0.143675 -0.300129,0.03193 -0.590672,0.04789 -0.871631,0.04789 -0.855673,0 -1.626731,-0.134097 -2.313176,-0.402291 C 9.9265891,30.118909 9.3423093,29.721407 8.8602007,29.194596 8.3780879,28.667788 8.0077247,28.01167 7.7491101,27.226241 7.4904934,26.440819 7.3611856,25.530875 7.3611862,24.496406 c -6e-7,-1.028071 0.1436747,-1.949189 0.4310265,-2.763359 0.2873497,-0.814151 0.6912371,-1.503793 1.2116635,-2.068927 0.5204219,-0.565112 1.1462078,-0.996138 1.8773598,-1.29308 0.731144,-0.296917 1.537323,-0.445381 2.418538,-0.445394 0.561924,1.3e-5 1.096716,0.0495 1.604377,0.148465 0.507645,0.09899 0.994544,0.257032 1.460701,0.474129 z"
     style="fill:#ffffff;font-family:Consolas;-inkscape-font-specification:Consolas"
     id="path2991" /><path
     d="m 28.318654,18.098057 -4.530567,8.045829 0,4.473097 -1.724107,0 0,-4.511411 -4.530568,-8.007515 2.05935,0 2.490375,4.57846 0.919523,1.839046 0.842897,-1.666636 2.51911,-4.75087 z"
     style="fill:#ffffff;font-family:Consolas;-inkscape-font-specification:Consolas"
     id="path2993" /><path
     d="m 38.653713,30.616983 -1.666636,0 -0.249038,-7.806369 -0.105362,-2.998029 -0.58428,1.743263 -1.848625,4.980751 -1.178139,0 -1.76242,-4.789184 -0.58428,-1.93483 -0.03831,3.132126 -0.220302,7.672272 -1.609166,0 0.613016,-12.518926 2.021035,0 1.685793,4.712557 0.545967,1.590009 0.52681,-1.590009 1.771998,-4.712557 2.078506,0 z"
     style="fill:#ffffff;font-family:Consolas;-inkscape-font-specification:Consolas"
     id="path2995" /></g>
</g></svg>