<?xml version="1.0" encoding="UTF-8" standalone="no"?>
<!-- Generator: Adobe Illustrator 15.0.0, SVG Export Plug-In . SVG Version: 6.00 Build 0)  -->

<svg
   xmlns:dc="http://purl.org/dc/elements/1.1/"
   xmlns:cc="http://creativecommons.org/ns#"
   xmlns:rdf="http://www.w3.org/1999/02/22-rdf-syntax-ns#"
   xmlns:svg="http://www.w3.org/2000/svg"
   xmlns="http://www.w3.org/2000/svg"
   xmlns:sodipodi="http://sodipodi.sourceforge.net/DTD/sodipodi-0.dtd"
   xmlns:inkscape="http://www.inkscape.org/namespaces/inkscape"
   version="1.1"
   x="0px"
   y="0px"
   width="40px"
   height="40px"
   viewBox="0 0 40 40"
   enable-background="new 0 0 40 40"
   xml:space="preserve"
   id="svg2"
   inkscape:version="0.48.3.1 r9886"
   sodipodi:docname="g_sts.svg"
   inkscape:export-filename="M:\Themen\Icons\Portale\schulweg-routing\g_sts.png"
   inkscape:export-xdpi="90"
   inkscape:export-ydpi="90"><metadata
   id="metadata17"><rdf:RDF><cc:Work
       rdf:about=""><dc:format>image/svg+xml</dc:format><dc:type
         rdf:resource="http://purl.org/dc/dcmitype/StillImage" /><dc:title></dc:title></cc:Work></rdf:RDF></metadata><defs
   id="defs15" /><sodipodi:namedview
   pagecolor="#ffffff"
   bordercolor="#666666"
   borderopacity="1"
   objecttolerance="10"
   gridtolerance="10"
   guidetolerance="10"
   inkscape:pageopacity="0"
   inkscape:pageshadow="2"
   inkscape:window-width="1321"
   inkscape:window-height="973"
   id="namedview13"
   showgrid="false"
   inkscape:zoom="19.85"
   inkscape:cx="20"
   inkscape:cy="19.43232"
   inkscape:window-x="1218"
   inkscape:window-y="4"
   inkscape:window-maximized="0"
   inkscape:current-layer="layer1" />
<g
   id="Ebene_7"
   style="fill:#4e9041;fill-opacity:1;stroke:#257d26;stroke-opacity:1">
	<path
   clip-rule="evenodd"
   stroke-miterlimit="10"
   d="   M37.162,38.234c0,0.38-0.392,0.703-0.782,0.703H5.313c-0.387,0-1.111-0.607-1.111-0.987L3.938,20C3.938,19.34,2,19.125,2,19.125   S19.195,1.666,19.449,1.416c0.335-0.32,0.79-0.218,1.006-0.009C20.621,1.567,38.36,18.958,38.36,18.958s-1.296,0.499-1.254,1.117   L37.162,38.234z"
   id="path5"
   style="fill:#4e9041;fill-opacity:1;stroke:#257d26;stroke-opacity:1"
   stroke-width="2"
   stroke="#4D6523"
   fill-rule="evenodd"
   fill="#85A044" />
</g>
<g
   id="Ebene_9"
   style="fill:#e5f8e7;fill-opacity:1">
	<polygon
   clip-rule="evenodd"
   points="20,2.369 3.958,18.583 5.486,20 21.575,3.933  "
   id="polygon8"
   style="fill:#e5f8e7;fill-opacity:1"
   fill-rule="evenodd"
   fill="#F2F9D7" />
</g>
<g
   id="Ebene_8"
   style="fill:#388929;fill-opacity:1"
   transform="matrix(1,0,0,0.63838797,-0.05037784,0.32267245)">
	<path
   clip-rule="evenodd"
   d="m 36.103,37.915 c -0.774,0.007 -1.194,0.035 -1.566,0.035 H 5.625 C 5.02,38.03 5.083,37.656 5.083,37.542 l 0.042,-6.25 c 0,-0.202 1.482,-0.821 1.482,-0.821 0,0 12.561,-3.924 12.872,-4.022 0.318,-0.098 0.75,-0.065 0.955,-0.004 0.205,0.064 14.516,4.568 14.516,4.568 0,0 1.114,0.233 1.152,0.425 v 6.477 z"
   id="path11"
   style="fill:#388929;fill-opacity:1;fill-rule:evenodd"
   inkscape:connector-curvature="0" />
</g><g
   inkscape:groupmode="layer"
   id="layer1"
   inkscape:label="Text"><g
   transform="scale(0.87958808,1.1368958)"
   style="font-size:13.7492218px;font-style:normal;font-variant:normal;font-weight:normal;font-stretch:normal;line-height:125%;letter-spacing:0px;word-spacing:0px;fill:#ffffff;fill-opacity:1;stroke:none;font-family:Arial;-inkscape-font-specification:Arial"
   id="text3767"><path
     d="m 18.955714,18.235377 c -7e-6,0.416239 -0.08504,0.781004 -0.255113,1.094299 -0.170081,0.313297 -0.40729,0.574004 -0.711629,0.782121 -0.30435,0.208118 -0.670235,0.363647 -1.097655,0.466587 -0.42743,0.10294 -0.898492,0.15441 -1.413189,0.154411 -0.232738,-1e-6 -0.464353,-0.009 -0.694846,-0.02685 -0.230499,-0.0179 -0.452044,-0.04028 -0.664636,-0.06714 -0.212595,-0.02685 -0.41288,-0.05818 -0.600857,-0.09399 -0.187978,-0.0358 -0.358053,-0.07385 -0.510225,-0.114129 l 0,-1.15472 c 0.335674,0.12532 0.712747,0.223784 1.131223,0.295393 0.418472,0.07161 0.89401,0.107417 1.426616,0.107416 0.384903,1e-6 0.712744,-0.03021 0.983526,-0.09063 0.270773,-0.06042 0.492317,-0.149933 0.664635,-0.268539 0.172308,-0.118604 0.297626,-0.262944 0.375955,-0.43302 0.07832,-0.170073 0.117481,-0.364764 0.117486,-0.584074 -5e-6,-0.237207 -0.06602,-0.43973 -0.198047,-0.60757 C 17.37692,17.527108 17.203489,17.377173 16.988662,17.245138 16.773826,17.11311 16.528784,16.992267 16.253535,16.88261 15.978279,16.77296 15.697431,16.65995 15.410993,16.543579 15.124548,16.427216 14.8437,16.300778 14.56845,16.164267 14.293195,16.027764 14.048153,15.86664 13.833323,15.680895 13.61849,15.495161 13.445059,15.276973 13.313028,15.02633 13.180995,14.775699 13.114979,14.478068 13.11498,14.133437 c -10e-7,-0.299863 0.06266,-0.595256 0.187978,-0.886181 0.125317,-0.29091 0.320008,-0.549379 0.584073,-0.775407 0.264062,-0.226013 0.603093,-0.408396 1.017093,-0.54715 0.413996,-0.138736 0.907437,-0.208109 1.480324,-0.208118 0.147693,9e-6 0.307697,0.0067 0.480015,0.02014 0.172308,0.01344 0.346858,0.03246 0.523652,0.05706 0.176783,0.02462 0.351333,0.0526 0.523652,0.08392 0.172307,0.03134 0.332311,0.06491 0.480014,0.100702 l 0,1.074158 c -0.344631,-0.09846 -0.689257,-0.173424 -1.033877,-0.224902 -0.34463,-0.05146 -0.678067,-0.0772 -1.00031,-0.0772 -0.684779,8e-6 -1.18829,0.114137 -1.510534,0.342388 -0.32225,0.228266 -0.483373,0.534848 -0.483371,0.919748 -2e-6,0.237216 0.06601,0.440858 0.198048,0.610927 0.132029,0.170081 0.305461,0.322253 0.520295,0.456517 0.214828,0.134276 0.45987,0.256237 0.735127,0.365885 0.275249,0.109659 0.556096,0.222669 0.842542,0.339032 0.286438,0.116371 0.567285,0.243927 0.842543,0.382668 0.275247,0.13875 0.52029,0.30323 0.735127,0.493442 0.214825,0.190219 0.388257,0.412883 0.520295,0.667992 0.132025,0.255115 0.198041,0.557222 0.198048,0.90632 z"
     style="fill:#ffffff;font-family:Consolas;-inkscape-font-specification:Consolas"
     id="path2996" /><path
     d="m 26.817207,12.857874 -2.598119,0 0,7.754078 -1.208428,0 0,-7.754078 -2.598119,0 0,-1.02045 6.404666,0 z"
     style="fill:#ffffff;font-family:Consolas;-inkscape-font-specification:Consolas"
     id="path2998" /><path
     d="m 34.101341,18.235377 c -7e-6,0.416239 -0.08504,0.781004 -0.255112,1.094299 -0.170082,0.313297 -0.407291,0.574004 -0.71163,0.782121 -0.30435,0.208118 -0.670235,0.363647 -1.097655,0.466587 -0.42743,0.10294 -0.898492,0.15441 -1.413189,0.154411 -0.232738,-1e-6 -0.464353,-0.009 -0.694846,-0.02685 -0.230499,-0.0179 -0.452044,-0.04028 -0.664636,-0.06714 -0.212595,-0.02685 -0.41288,-0.05818 -0.600857,-0.09399 -0.187978,-0.0358 -0.358053,-0.07385 -0.510225,-0.114129 l 0,-1.15472 c 0.335674,0.12532 0.712747,0.223784 1.131223,0.295393 0.418472,0.07161 0.89401,0.107417 1.426616,0.107416 0.384903,1e-6 0.712745,-0.03021 0.983526,-0.09063 0.270773,-0.06042 0.492317,-0.149933 0.664635,-0.268539 0.172308,-0.118604 0.297626,-0.262944 0.375955,-0.43302 0.07832,-0.170073 0.117481,-0.364764 0.117486,-0.584074 -5e-6,-0.237207 -0.06602,-0.43973 -0.198047,-0.60757 C 32.522547,17.527108 32.349116,17.377173 32.134289,17.245138 31.919453,17.11311 31.674411,16.992267 31.399162,16.88261 31.123906,16.77296 30.843058,16.65995 30.55662,16.543579 30.270175,16.427216 29.989328,16.300778 29.714077,16.164267 29.438822,16.027764 29.19378,15.86664 28.97895,15.680895 28.764117,15.495161 28.590686,15.276973 28.458655,15.02633 c -0.132033,-0.250631 -0.198049,-0.548262 -0.198048,-0.892893 -1e-6,-0.299863 0.06266,-0.595256 0.187978,-0.886181 0.125317,-0.29091 0.320008,-0.549379 0.584073,-0.775407 0.264062,-0.226013 0.603093,-0.408396 1.017093,-0.54715 0.413996,-0.138736 0.907437,-0.208109 1.480324,-0.208118 0.147693,9e-6 0.307697,0.0067 0.480015,0.02014 0.172308,0.01344 0.346858,0.03246 0.523652,0.05706 0.176783,0.02462 0.351333,0.0526 0.523652,0.08392 0.172307,0.03134 0.332311,0.06491 0.480014,0.100702 l 0,1.074158 c -0.344631,-0.09846 -0.689257,-0.173424 -1.033877,-0.224902 -0.34463,-0.05146 -0.678067,-0.0772 -1.00031,-0.0772 -0.684779,8e-6 -1.18829,0.114137 -1.510534,0.342388 -0.32225,0.228266 -0.483373,0.534848 -0.483371,0.919748 -2e-6,0.237216 0.06601,0.440858 0.198048,0.610927 0.132029,0.170081 0.305461,0.322253 0.520295,0.456517 0.214828,0.134276 0.45987,0.256237 0.735127,0.365885 0.275249,0.109659 0.556096,0.222669 0.842542,0.339032 0.286438,0.116371 0.567285,0.243927 0.842543,0.382668 0.275247,0.13875 0.52029,0.30323 0.735127,0.493442 0.214825,0.190219 0.388257,0.412883 0.520295,0.667992 0.132025,0.255115 0.198041,0.557222 0.198048,0.90632 z"
     style="fill:#ffffff;font-family:Consolas;-inkscape-font-specification:Consolas"
     id="path3000" /></g>

<rect
   style="fill:#469fc3;fill-opacity:1;stroke:#0882b2;stroke-width:2.48631215;stroke-linejoin:round;stroke-miterlimit:4;stroke-opacity:1;stroke-dasharray:none"
   id="rect3762"
   width="32.330441"
   height="12.927724"
   x="4.5472274"
   y="25.712074" /><rect
   style="fill:#469fc3;fill-opacity:1;stroke:none"
   id="rect3766"
   width="30.831232"
   height="9.2700691"
   x="4.7207317"
   y="24.535456"
   transform="matrix(1,0,0.01086892,0.99994093,0,0)" /><path
   style="fill:#238db8;fill-opacity:1;stroke:none"
   d="m 5.0881615,33.924101 c 24.6082645,-3.985538 5.4746785,-4.065096 30.8816135,0 l -0.100756,3.859275 -30.8816132,0 z"
   id="rect3768"
   inkscape:connector-curvature="0"
   sodipodi:nodetypes="ccccc" /><g
   transform="scale(1.0101774,0.98992515)"
   style="font-size:23.19562912px;font-style:normal;font-variant:normal;font-weight:normal;font-stretch:normal;line-height:125%;letter-spacing:0px;word-spacing:0px;fill:#ffffff;fill-opacity:1;stroke:none;font-family:Arial;-inkscape-font-specification:Arial"
   id="text3767-1"><path
     d="m 23.378578,28.249176 c -0.388683,-0.20764 -0.788007,-0.3687 -1.197973,-0.483182 -0.409979,-0.114464 -0.857222,-0.1717 -1.341729,-0.17171 -0.553735,1e-5 -1.046234,0.09851 -1.4775,0.2955 -0.431274,0.197009 -0.794659,0.475205 -1.090155,0.834588 -0.295503,0.3594 -0.521787,0.792001 -0.678852,1.297804 -0.157069,0.505817 -0.235603,1.064871 -0.235601,1.677162 -2e-6,0.638924 0.06389,1.211288 0.191676,1.717095 0.127781,0.505813 0.327443,0.934421 0.598986,1.285824 0.271537,0.351407 0.618949,0.620285 1.042236,0.806635 0.42328,0.186352 0.930421,0.279528 1.521426,0.279527 0.101157,1e-6 0.210305,-0.0053 0.327446,-0.01597 0.117129,-0.01065 0.234264,-0.02529 0.351405,-0.04393 0.117129,-0.01863 0.230271,-0.04126 0.339426,-0.06789 0.109142,-0.02662 0.206311,-0.0559 0.291507,-0.08785 l 0,-3.322378 -2.132392,0 0,-1.174014 3.538013,0 0,5.334973 c -0.218305,0.101162 -0.448582,0.191676 -0.690831,0.27154 -0.242264,0.07987 -0.489845,0.146419 -0.742743,0.199663 -0.252912,0.05324 -0.504486,0.09318 -0.754723,0.119797 -0.250249,0.02662 -0.492505,0.03993 -0.72677,0.03993 -0.713464,0 -1.356375,-0.111811 -1.928737,-0.335432 -0.572367,-0.223621 -1.059542,-0.55506 -1.461526,-0.994318 -0.401988,-0.439255 -0.710799,-0.986329 -0.926433,-1.641223 -0.215636,-0.654888 -0.323453,-1.413603 -0.323452,-2.276148 -1e-6,-0.85721 0.119796,-1.625243 0.359391,-2.304101 0.239594,-0.678843 0.576357,-1.25387 1.010291,-1.725081 0.43393,-0.471193 0.955713,-0.830585 1.565351,-1.078176 0.609631,-0.24757 1.281826,-0.371361 2.016588,-0.371371 0.468534,10e-6 0.914446,0.04127 1.337736,0.12379 0.423277,0.08254 0.829256,0.214314 1.217939,0.395331 z"
     style="font-size:16.35632324px;fill:#ffffff;font-family:Consolas;-inkscape-font-specification:Consolas"
     id="path3003" /></g>
</g>
</svg>