<?xml version="1.0" encoding="UTF-8" standalone="no"?>
<!-- Generator: Adobe Illustrator 15.0.0, SVG Export Plug-In . SVG Version: 6.00 Build 0)  -->

<svg
   xmlns:dc="http://purl.org/dc/elements/1.1/"
   xmlns:cc="http://creativecommons.org/ns#"
   xmlns:rdf="http://www.w3.org/1999/02/22-rdf-syntax-ns#"
   xmlns:svg="http://www.w3.org/2000/svg"
   xmlns="http://www.w3.org/2000/svg"
   xmlns:sodipodi="http://sodipodi.sourceforge.net/DTD/sodipodi-0.dtd"
   xmlns:inkscape="http://www.inkscape.org/namespaces/inkscape"
   version="1.1"
   x="0px"
   y="0px"
   width="40px"
   height="40px"
   viewBox="0 0 40 40"
   enable-background="new 0 0 40 40"
   xml:space="preserve"
   id="svg2"
   inkscape:version="0.48.3.1 r9886"
   sodipodi:docname="so.svg"
   inkscape:export-filename="M:\Themen\Icons\Portale\schulweg-routing\so.png"
   inkscape:export-xdpi="90"
   inkscape:export-ydpi="90"><metadata
   id="metadata17"><rdf:RDF><cc:Work
       rdf:about=""><dc:format>image/svg+xml</dc:format><dc:type
         rdf:resource="http://purl.org/dc/dcmitype/StillImage" /><dc:title></dc:title></cc:Work></rdf:RDF></metadata><defs
   id="defs15" /><sodipodi:namedview
   pagecolor="#ffffff"
   bordercolor="#666666"
   borderopacity="1"
   objecttolerance="10"
   gridtolerance="10"
   guidetolerance="10"
   inkscape:pageopacity="0"
   inkscape:pageshadow="2"
   inkscape:window-width="1220"
   inkscape:window-height="973"
   id="namedview13"
   showgrid="false"
   inkscape:zoom="19.85"
   inkscape:cx="22.344848"
   inkscape:cy="19.43232"
   inkscape:window-x="1407"
   inkscape:window-y="8"
   inkscape:window-maximized="0"
   inkscape:current-layer="layer1" />
<g
   id="Ebene_7"
   style="fill:#eac344;fill-opacity:1;stroke:#dfae19;stroke-opacity:1"
   inkscape:export-filename="M:\Themen\Icons\Portale\schulweg-routing\so.png"
   inkscape:export-xdpi="90"
   inkscape:export-ydpi="90">
	<path
   clip-rule="evenodd"
   stroke-miterlimit="10"
   d="   M37.162,38.234c0,0.38-0.392,0.703-0.782,0.703H5.313c-0.387,0-1.111-0.607-1.111-0.987L3.938,20C3.938,19.34,2,19.125,2,19.125   S19.195,1.666,19.449,1.416c0.335-0.32,0.79-0.218,1.006-0.009C20.621,1.567,38.36,18.958,38.36,18.958s-1.296,0.499-1.254,1.117   L37.162,38.234z"
   id="path5"
   style="fill:#eac344;fill-opacity:1;stroke:#dfae19;stroke-opacity:1"
   stroke-width="2"
   stroke="#4D6523"
   fill-rule="evenodd"
   fill="#85A044" />
</g>
<g
   id="Ebene_9"
   style="fill:#faf3d8;fill-opacity:1">
	<polygon
   clip-rule="evenodd"
   points="20,2.369 3.958,18.583 5.486,20 21.575,3.933  "
   id="polygon8"
   style="fill:#faf3d8;fill-opacity:1"
   fill-rule="evenodd"
   fill="#F2F9D7" />
</g>
<g
   id="Ebene_8"
   style="fill:#e8b71a;fill-opacity:1"
   transform="matrix(1,0.00324789,0,1,0.05037783,-0.06688079)">
	<path
   clip-rule="evenodd"
   d="m 36.103,37.915 c -0.774,0.007 -1.194,0.035 -1.566,0.035 H 5.625 C 5.02,38.03 5.083,37.656 5.083,37.542 l 0.042,-6.25 c 0,-0.202 1.482,-0.821 1.482,-0.821 0,0 12.561,-3.924 12.872,-4.022 0.318,-0.098 0.75,-0.065 0.955,-0.004 0.205,0.064 14.516,4.568 14.516,4.568 0,0 1.114,0.233 1.152,0.425 v 6.477 z"
   id="path11"
   style="fill:#e8b71a;fill-opacity:1;fill-rule:evenodd"
   inkscape:connector-curvature="0" />
</g>
<g
   inkscape:groupmode="layer"
   id="layer1"
   inkscape:label="Text"><g
   transform="scale(0.9308048,1.0743391)"
   style="font-size:20.34192657px;font-style:normal;font-variant:normal;font-weight:normal;font-stretch:normal;line-height:125%;letter-spacing:0px;word-spacing:0px;fill:#ffffff;fill-opacity:1;stroke:none;font-family:Arial;-inkscape-font-specification:Arial"
   id="text3767"><path
     d="m 21.162843,28.233082 c -10e-6,0.615823 -0.125823,1.155493 -0.377438,1.619011 -0.251635,0.463522 -0.602586,0.849237 -1.052854,1.157146 -0.450285,0.30791 -0.99161,0.538015 -1.623977,0.690314 -0.63238,0.1523 -1.329316,0.228449 -2.090808,0.22845 -0.344334,-1e-6 -0.687008,-0.01324 -1.028022,-0.03973 -0.341022,-0.02649 -0.668797,-0.0596 -0.983326,-0.09933 -0.314534,-0.03973 -0.610856,-0.08608 -0.888966,-0.139056 -0.278114,-0.05297 -0.529739,-0.109258 -0.754876,-0.168854 l 0,-1.708404 c 0.496627,0.18541 1.054507,0.331088 1.67364,0.437034 0.619127,0.105949 1.322684,0.158923 2.110673,0.158921 0.569463,2e-6 1.054503,-0.0447 1.455124,-0.13409 0.400607,-0.08939 0.728382,-0.221825 0.983325,-0.397303 0.254929,-0.175473 0.440337,-0.389024 0.556225,-0.640651 0.115872,-0.251623 0.173812,-0.539667 0.17382,-0.864135 -8e-6,-0.350947 -0.09768,-0.65058 -0.293011,-0.898899 -0.195349,-0.248309 -0.45194,-0.470137 -0.769775,-0.665482 -0.31785,-0.195336 -0.680389,-0.374122 -1.087618,-0.53636 -0.407241,-0.162226 -0.822754,-0.329425 -1.246539,-0.501595 -0.423794,-0.172159 -0.839307,-0.359222 -1.246539,-0.561191 -0.407239,-0.201956 -0.769778,-0.440337 -1.087618,-0.715146 -0.317844,-0.274794 -0.574436,-0.597602 -0.769775,-0.968427 -0.195342,-0.370807 -0.293012,-0.811151 -0.293011,-1.321033 -10e-7,-0.443645 0.0927,-0.880678 0.278112,-1.311101 0.185407,-0.4304 0.473451,-0.812804 0.864135,-1.147213 0.390679,-0.334384 0.892274,-0.604219 1.504786,-0.809505 0.612505,-0.20526 1.342549,-0.307897 2.190134,-0.30791 0.218511,1.3e-5 0.455237,0.0099 0.71018,0.0298 0.254929,0.01988 0.513176,0.04802 0.774741,0.08443 0.26155,0.03643 0.519797,0.07782 0.774742,0.124158 0.254927,0.04637 0.491653,0.09603 0.710179,0.148988 l 0,1.589213 c -0.509881,-0.145666 -1.019753,-0.25658 -1.529617,-0.332741 -0.50988,-0.07614 -1.003198,-0.114213 -1.479955,-0.114225 -1.013128,1.2e-5 -1.758071,0.168866 -2.234831,0.506562 -0.476767,0.337719 -0.715149,0.791306 -0.715146,1.360764 -3e-6,0.35096 0.09767,0.652248 0.293011,0.903865 0.195338,0.251634 0.451929,0.476772 0.769776,0.675415 0.317838,0.19866 0.680376,0.379101 1.087617,0.541326 0.40723,0.162239 0.822743,0.329438 1.246539,0.501595 0.423783,0.172172 0.839296,0.360891 1.246539,0.566157 0.407228,0.20528 0.769767,0.448628 1.087618,0.730045 0.317833,0.281429 0.574425,0.610859 0.769775,0.988292 0.195331,0.377442 0.293001,0.824408 0.293011,1.340898 z"
     style="fill:#ffffff;font-family:Consolas;-inkscape-font-specification:Consolas"
     id="path2991" /><path
     d="m 33.101806,25.173847 c -1.1e-5,1.165429 -0.137411,2.171929 -0.412202,3.019505 -0.274812,0.847583 -0.645628,1.547829 -1.112449,2.100741 -0.46684,0.552915 -1.013132,0.963461 -1.638876,1.23164 -0.62576,0.26818 -1.286276,0.402269 -1.98155,0.40227 -0.834342,-1e-6 -1.561075,-0.150645 -2.180202,-0.451933 -0.619134,-0.301288 -1.132316,-0.736665 -1.53955,-1.306134 -0.407237,-0.569466 -0.710181,-1.263091 -0.908831,-2.080876 -0.198653,-0.817778 -0.297978,-1.739852 -0.297978,-2.766224 0,-1.152172 0.135745,-2.152051 0.407236,-2.99964 0.271489,-0.84757 0.64065,-1.547816 1.107483,-2.100741 0.466829,-0.552901 1.011465,-0.963447 1.63391,-1.23164 0.622437,-0.268166 1.281298,-0.402256 1.976583,-0.402269 0.834331,1.3e-5 1.561064,0.152312 2.180202,0.456899 0.619122,0.304611 1.133961,0.739989 1.544516,1.306134 0.410537,0.566168 0.716791,1.256482 0.918764,2.070943 0.201952,0.81448 0.302933,1.731588 0.302944,2.751325 z m -1.837528,0.129124 c -9e-6,-0.761491 -0.05795,-1.458426 -0.17382,-2.090809 -0.115889,-0.632365 -0.302952,-1.177001 -0.561191,-1.633909 -0.258255,-0.456888 -0.590996,-0.81115 -0.998224,-1.062786 -0.407243,-0.251614 -0.898905,-0.377427 -1.474989,-0.377439 -0.556229,1.2e-5 -1.034648,0.134102 -1.435258,0.40227 -0.400617,0.268191 -0.730048,0.632385 -0.988291,1.092584 -0.25825,0.460219 -0.45028,0.999889 -0.57609,1.619011 -0.125815,0.619139 -0.188722,1.276344 -0.188719,1.971617 -3e-6,0.768126 0.05959,1.468372 0.178786,2.100741 0.119189,0.632378 0.306252,1.175359 0.561191,1.628943 0.254933,0.453591 0.584363,0.806197 0.988292,1.05782 0.40392,0.251627 0.890616,0.37744 1.460089,0.377438 0.556219,2e-6 1.036293,-0.134088 1.440225,-0.402269 0.403917,-0.268178 0.736658,-0.632372 0.998224,-1.092584 0.26155,-0.460206 0.455235,-0.998221 0.581056,-1.614045 0.125804,-0.615814 0.18871,-1.274675 0.188719,-1.976583 z"
     style="fill:#ffffff;font-family:Consolas;-inkscape-font-specification:Consolas"
     id="path2993" /></g>

</g></svg>