<?xml version="1.0" encoding="utf-8"?>
<!-- Generator: Adobe Illustrator 16.0.4, SVG Export Plug-In . SVG Version: 6.00 Build 0)  -->
<!DOCTYPE svg PUBLIC "-//W3C//DTD SVG 1.1//EN" "http://www.w3.org/Graphics/SVG/1.1/DTD/svg11.dtd">
<svg version="1.1" id="Ebene_1" xmlns="http://www.w3.org/2000/svg" xmlns:xlink="http://www.w3.org/1999/xlink" x="0px" y="0px"
	 width="85.54px" height="76.4px" viewBox="0 0 85.54 76.4" enable-background="new 0 0 85.54 76.4" xml:space="preserve">
<g>
	<rect x="30.83" y="18.854" fill="#FFFFFF" width="22" height="49.241"/>
	<g>
		<path fill="#767676" d="M84.241,63.146L50.604,4.91l-0.012,0.006c-0.421-0.854-0.965-1.658-1.676-2.371
			c-3.394-3.394-8.899-3.394-12.293,0c-0.616,0.615-1.122,1.305-1.506,2.032V4.572L1.504,62.823v0.013
			c-0.531,0.777-0.952,1.657-1.205,2.626c-1.245,4.641,1.507,9.409,6.145,10.646c0.834,0.226,1.679,0.314,2.513,0.289l67.255-0.011
			v-0.008c3.221,0.224,6.436-1.339,8.163-4.315C86.025,69.192,85.87,65.773,84.241,63.146 M46.568,63.191
			c-1.081,1.021-2.349,1.535-3.789,1.535c-1.47,0-2.752-0.514-3.823-1.535c-1.082-1.032-1.623-2.256-1.623-3.684
			c0-1.42,0.541-2.65,1.623-3.698c1.07-1.049,2.354-1.563,3.823-1.563c1.44,0,2.708,0.515,3.789,1.563
			c1.084,1.048,1.625,2.278,1.625,3.698C48.193,60.937,47.652,62.159,46.568,63.191 M47.866,31.374
			c-0.271,1.275-0.621,2.766-1.036,4.479c-0.396,1.612-0.859,3.63-1.356,6.053c-0.518,2.409-1.047,5.401-1.623,8.952h-2.175
			c-0.564-3.592-1.106-6.581-1.626-8.973c-0.504-2.384-0.957-4.392-1.354-6.012c-0.36-1.481-0.686-2.93-0.99-4.356
			c-0.305-1.423-0.45-2.49-0.45-3.211c0-1.438,0.529-2.672,1.61-3.703c1.081-1.029,2.37-1.536,3.881-1.536
			c1.488,0,2.782,0.507,3.878,1.536c1.105,1.031,1.66,2.266,1.66,3.703C48.285,29.084,48.137,30.104,47.866,31.374"/>
	</g>
</g>
</svg>
