<?xml version="1.0" encoding="utf-8"?>
<!-- Generator: Adobe Illustrator 16.0.4, SVG Export Plug-In . SVG Version: 6.00 Build 0)  -->
<!DOCTYPE svg PUBLIC "-//W3C//DTD SVG 1.1//EN" "http://www.w3.org/Graphics/SVG/1.1/DTD/svg11.dtd">
<svg version="1.1" id="Ebene_1" xmlns="http://www.w3.org/2000/svg" xmlns:xlink="http://www.w3.org/1999/xlink" x="0px" y="0px"
     width="423.65px" height="139.13px" viewBox="0 0 423.65 139.13" enable-background="new 0 0 423.65 139.13" xml:space="preserve">
<g>
    <rect x="37.898" y="11.961" fill="#FFFFFF" width="22" height="62.947"/>
    <polygon fill="#767676" points="0,92.358 0,139.13 15.875,139.13 15.875,108.233 81.922,108.233 81.922,139.13 97.796,139.13 97.796,92.358     "/>
    <path fill="#767676" d="M48.498,0C25.923,0,7.621,18.302,7.621,40.878c0,22.574,18.302,40.875,40.877,40.875
        s40.877-18.301,40.877-40.875C89.375,18.302,71.073,0,48.498,0z M53.89,67.478H42.946V32.267H53.89V67.478z M48.346,24.946
        c-3.456,0-5.688-2.449-5.688-5.474c0-3.098,2.304-5.474,5.832-5.474c3.527,0,5.688,2.376,5.761,5.474
        C54.249,22.497,52.018,24.946,48.346,24.946z"/>
    <polygon fill="#767676" points="423.647,105.64 142.336,105.64 105.25,63.118 142.336,20.599 423.647,20.599     "/>
    <g>
        <path fill="#FFFFFF" d="M167.021,45.308c4.16,0,7.207,1.369,9.146,4.104c1.937,2.735,2.904,6.824,2.904,12.266
            c0,5.982-1.058,10.416-3.17,13.295c-2.111,2.881-5.312,4.32-9.601,4.32h-5.711V45.309L167.021,45.308L167.021,45.308z
             M175.132,61.677c0-2.24-0.119-4.19-0.358-5.854c-0.24-1.664-0.688-3.033-1.345-4.104c-0.655-1.072-1.567-1.873-2.735-2.4
            c-1.168-0.526-2.681-0.79-4.535-0.79h-1.873v27.551h2.306c1.728,0,3.144-0.287,4.248-0.863c1.104-0.576,1.976-1.455,2.614-2.641
            c0.641-1.185,1.08-2.681,1.32-4.488C175.013,66.276,175.132,64.142,175.132,61.677z"/>
        <path fill="#FFFFFF" d="M187.517,68.204c0.16,3.008,0.769,5.201,1.824,6.576c1.055,1.377,2.463,2.063,4.223,2.063
            c1.023,0,2.009-0.186,2.953-0.553c0.943-0.367,1.879-0.89,2.808-1.562l1.347,2.929c-0.961,0.643-2.025,1.186-3.193,1.633
            s-2.551,0.672-4.151,0.672c-1.438,0-2.743-0.297-3.909-0.889c-1.171-0.593-2.16-1.425-2.978-2.496
            c-0.817-1.07-1.449-2.375-1.896-3.912c-0.449-1.535-0.673-3.265-0.673-5.185s0.207-3.664,0.623-5.231
            c0.416-1.566,1.017-2.896,1.802-3.982c0.782-1.088,1.729-1.928,2.832-2.521c1.104-0.592,2.344-0.887,3.721-0.887
            c1.631,0,2.981,0.366,4.056,1.104c1.071,0.736,1.929,1.674,2.567,2.809c0.641,1.138,1.088,2.394,1.344,3.769
            c0.257,1.377,0.386,2.721,0.386,4.033c0,0.159,0,0.393,0,0.694c0,0.306-0.019,0.617-0.049,0.937L187.517,68.204L187.517,68.204z
             M192.845,57.741c-1.408,0-2.608,0.567-3.603,1.703c-0.993,1.137-1.551,3.079-1.68,5.832h10.176
            c-0.063-2.433-0.513-4.296-1.345-5.593C195.563,58.388,194.38,57.741,192.845,57.741z"/>
        <path fill="#FFFFFF" d="M219.291,60.237c-0.575-0.48-1.09-0.882-1.536-1.201c-0.447-0.318-0.854-0.56-1.224-0.719
            c-0.369-0.16-0.729-0.271-1.08-0.337c-0.354-0.063-0.737-0.098-1.151-0.098c-1.824,0-3.209,0.801-4.151,2.4
            c-0.945,1.602-1.416,3.95-1.416,7.057c0,3.168,0.424,5.562,1.271,7.176c0.848,1.615,2.118,2.424,3.815,2.424
            c0.512,0,0.978-0.049,1.394-0.145c0.414-0.096,0.84-0.246,1.271-0.455s0.879-0.479,1.344-0.815c0.463-0.337,1-0.744,1.606-1.226
            l1.345,2.688c-0.896,0.801-1.912,1.496-3.047,2.088c-1.138,0.592-2.521,0.889-4.152,0.889c-2.721,0-4.832-1.057-6.336-3.168
            s-2.256-5.057-2.256-8.832c0-2.016,0.217-3.84,0.647-5.473c0.432-1.631,1.039-3.008,1.823-4.127
            c0.783-1.121,1.753-1.984,2.902-2.593c1.151-0.608,2.448-0.911,3.889-0.911c1.408,0,2.664,0.271,3.769,0.813
            c1.104,0.545,2.089,1.232,2.953,2.064L219.291,60.237z"/>
        <path fill="#FFFFFF" d="M240.987,78.38l-3.265,1.152l-9.312-12.722V79.29h-3.358V43.915l3.358-0.48v23.281l8.978-11.426
            l3.504,0.815l-8.782,10.513L240.987,78.38z"/>
        <path fill="#FFFFFF" d="M246.412,68.204c0.16,3.008,0.769,5.201,1.824,6.576c1.055,1.377,2.463,2.063,4.224,2.063
            c1.022,0,2.008-0.186,2.952-0.553c0.943-0.367,1.88-0.89,2.808-1.562l1.347,2.929c-0.962,0.643-2.025,1.186-3.193,1.633
            s-2.551,0.672-4.151,0.672c-1.438,0-2.744-0.297-3.909-0.889c-1.171-0.593-2.16-1.425-2.978-2.496
            c-0.817-1.07-1.449-2.375-1.896-3.912c-0.449-1.535-0.673-3.265-0.673-5.185s0.207-3.664,0.623-5.231
            c0.416-1.566,1.017-2.896,1.802-3.982c0.782-1.088,1.729-1.928,2.832-2.521c1.104-0.592,2.344-0.887,3.721-0.887
            c1.631,0,2.981,0.366,4.056,1.104c1.071,0.736,1.928,1.674,2.567,2.809c0.641,1.138,1.088,2.394,1.344,3.769
            c0.257,1.377,0.386,2.721,0.386,4.033c0,0.159,0,0.393,0,0.694c0,0.306-0.019,0.617-0.049,0.937L246.412,68.204L246.412,68.204z
             M251.74,57.741c-1.408,0-2.608,0.567-3.603,1.703c-0.993,1.137-1.551,3.079-1.681,5.832h10.177
            c-0.063-2.433-0.513-4.296-1.345-5.593C254.46,58.388,253.276,57.741,251.74,57.741z"/>
        <path fill="#FFFFFF" d="M274.108,78.812c-0.515,0.259-1.099,0.48-1.752,0.675c-0.656,0.19-1.354,0.286-2.089,0.286
            c-0.642,0-1.258-0.096-1.851-0.286c-0.592-0.193-1.11-0.488-1.559-0.89c-0.449-0.399-0.81-0.92-1.08-1.561
            c-0.272-0.642-0.408-1.408-0.408-2.306V43.915l3.408-0.479v31.535c0,0.736,0.176,1.258,0.526,1.562
            c0.353,0.305,0.815,0.457,1.394,0.457c0.479,0,0.928-0.072,1.344-0.218c0.416-0.145,0.815-0.312,1.199-0.504L274.108,78.812z"/>
        <path fill="#FFFFFF" d="M303.244,79.292l-2.641-10.367h-9.408l-2.642,10.367h-3.981l9.406-33.982h3.983l9.456,33.982H303.244z
             M292.013,65.757h7.774l-2.831-11.328l-1.058-4.85l-1.009,4.85L292.013,65.757z"/>
        <path fill="#FFFFFF" d="M320.765,78.812c-0.514,0.259-1.099,0.48-1.752,0.675c-0.656,0.19-1.354,0.286-2.088,0.286
            c-0.642,0-1.259-0.096-1.851-0.286c-0.592-0.193-1.11-0.488-1.56-0.89c-0.449-0.4-0.81-0.92-1.08-1.561
            c-0.272-0.642-0.407-1.408-0.407-2.306V43.915l3.407-0.479v31.535c0,0.736,0.177,1.258,0.527,1.562
            c0.352,0.305,0.815,0.457,1.393,0.457c0.479,0,0.929-0.072,1.345-0.218c0.416-0.145,0.815-0.312,1.198-0.504L320.765,78.812z"/>
        <path fill="#FFFFFF" d="M336.509,78.14c-0.832,0.545-1.776,0.953-2.832,1.226c-1.058,0.271-2.049,0.407-2.978,0.407
            c-1.92,0-3.328-0.526-4.226-1.584c-0.896-1.057-1.344-2.592-1.344-4.606V58.365h-3.694v-2.832h3.694v-7.295l3.36-0.48v7.775h7.295
            l-0.672,2.832h-6.623v14.256c0,0.545,0.017,1.071,0.047,1.584c0.031,0.514,0.138,0.961,0.312,1.346
            c0.176,0.383,0.455,0.695,0.841,0.937c0.385,0.239,0.912,0.358,1.584,0.358c0.641,0,1.287-0.104,1.942-0.312
            c0.655-0.207,1.465-0.552,2.424-1.031L336.509,78.14z"/>
        <path fill="#FFFFFF" d="M356.38,67.245c0,4.063-0.815,7.199-2.447,9.408c-1.633,2.207-3.92,3.312-6.864,3.312
            c-2.815,0-4.983-1.08-6.505-3.24c-1.52-2.16-2.278-5.225-2.278-9.19c0-4.033,0.815-7.152,2.447-9.359
            c1.633-2.209,3.92-3.312,6.864-3.312c2.783,0,4.942,1.096,6.479,3.286C355.611,60.341,356.38,63.372,356.38,67.245z
             M352.731,67.196c0-3.072-0.455-5.408-1.367-7.009c-0.912-1.602-2.278-2.399-4.104-2.399c-1.729,0-3.049,0.793-3.961,2.377
            s-1.367,3.863-1.367,6.84c0,1.152,0.056,2.32,0.168,3.504c0.111,1.187,0.353,2.256,0.72,3.217
            c0.369,0.959,0.912,1.752,1.633,2.375c0.722,0.625,1.688,0.938,2.904,0.938c1.151,0,2.079-0.289,2.782-0.863
            c0.703-0.576,1.248-1.336,1.634-2.281c0.383-0.942,0.639-1.998,0.768-3.168C352.667,69.558,352.731,68.38,352.731,67.196z"/>
        <path fill="#FFFFFF" d="M365.933,79.292h-3.36V60.812c0-0.896-0.056-1.791-0.168-2.688c-0.11-0.896-0.295-1.822-0.552-2.783
            l2.688-0.385c0.063,0.16,0.218,0.475,0.455,0.938c0.24,0.465,0.457,1.256,0.647,2.375c1.408-1.215,2.672-2.088,3.793-2.614
            c1.119-0.527,2.304-0.791,3.552-0.791c1.058,0,1.991,0.207,2.81,0.623c0.817,0.416,1.433,0.991,1.849,1.729
            c0.159,0.287,0.288,0.576,0.385,0.863c0.097,0.289,0.176,0.617,0.24,0.983c0.062,0.369,0.104,0.81,0.118,1.32
            c0.017,0.512,0.022,1.119,0.022,1.822v17.088h-3.358V62.157c0-1.537-0.231-2.633-0.694-3.289
            c-0.466-0.654-1.256-0.982-2.377-0.982c-0.673,0-1.543,0.305-2.615,0.912c-1.071,0.607-2.217,1.393-3.433,2.352L365.933,79.292
            L365.933,79.292z"/>
        <path fill="#FFFFFF" d="M399.339,73.677c0,0.896,0.057,1.793,0.168,2.688c0.11,0.895,0.295,1.823,0.553,2.782l-2.688,0.386
            c-0.063-0.129-0.209-0.457-0.434-0.984c-0.224-0.527-0.433-1.145-0.623-1.848c-1.025,1.088-2.041,1.871-3.05,2.352
            c-1.008,0.48-2.118,0.721-3.336,0.721c-1.854,0-3.328-0.602-4.416-1.801s-1.631-2.838-1.631-4.92
            c0-5.565,4.017-8.447,12.047-8.641v-1.631c0-1.664-0.319-2.849-0.959-3.554c-0.642-0.703-1.713-1.057-3.217-1.057
            c-0.929,0-1.81,0.137-2.642,0.408c-0.832,0.271-1.854,0.68-3.069,1.225l-1.152-2.785c1.056-0.543,2.152-1.008,3.287-1.393
            c1.138-0.383,2.474-0.574,4.009-0.574c4.768,0,7.151,2.287,7.151,6.863L399.339,73.677L399.339,73.677z M395.931,67.388
            c-5.729,0.064-8.592,1.855-8.592,5.377c0,1.185,0.312,2.15,0.937,2.902s1.433,1.129,2.426,1.129c1.535,0,3.278-0.961,5.229-2.881
            V67.388L395.931,67.388z"/>
    </g>
</g>
</svg>
