<?xml version="1.0" encoding="utf-8"?>
<!-- Generator: Adobe Illustrator 16.0.4, SVG Export Plug-In . SVG Version: 6.00 Build 0)  -->
<!DOCTYPE svg PUBLIC "-//W3C//DTD SVG 1.1//EN" "http://www.w3.org/Graphics/SVG/1.1/DTD/svg11.dtd">
<svg version="1.1" id="Ebene_1" xmlns="http://www.w3.org/2000/svg" xmlns:xlink="http://www.w3.org/1999/xlink" x="0px" y="0px"
     width="487.32px" height="139.13px" viewBox="0 0 487.32 139.13" enable-background="new 0 0 487.32 139.13" xml:space="preserve">
<g>
    <rect x="37.529" y="12.193" fill="#FFFFFF" width="22" height="62.947"/>
    <polygon fill="#767676" points="-0.369,92.434 -0.369,139.205 15.506,139.205 15.506,108.309 81.553,108.309 81.553,139.205 97.427,92.434     "/>
    <path fill="#767676" d="M48.129,0.075c-22.575,0-40.877,18.302-40.877,40.878c0,22.574,18.302,40.875,40.877,40.875
        s40.877-18.301,40.877-40.875C89.006,18.376,70.704,0.075,48.129,0.075z M53.521,67.552H42.577V32.341h10.943V67.552z
         M47.977,25.021c-3.456,0-5.688-2.449-5.688-5.474c0-3.098,2.304-5.474,5.832-5.474c3.527,0,5.688,2.376,5.761,5.474
        C53.88,22.572,51.648,25.021,47.977,25.021z"/>
    <polygon fill="#767676" points="486.945,105.715 141.648,105.715 104.881,63.193 141.648,20.673 486.945,20.673     "/>
    <g>
        <path fill="#FFFFFF" d="M166.65,45.378c4.16,0,7.207,1.369,9.145,4.104s2.904,6.823,2.904,12.266
            c0,5.982-1.057,10.414-3.168,13.294s-5.312,4.32-9.602,4.32h-5.711V45.379L166.65,45.378L166.65,45.378z M174.762,61.746
            c0-2.238-0.119-4.189-0.359-5.854c-0.238-1.664-0.688-3.033-1.344-4.105c-0.656-1.07-1.568-1.871-2.736-2.398
            c-1.168-0.526-2.68-0.791-4.535-0.791h-1.871v27.551h2.305c1.729,0,3.145-0.287,4.248-0.863s1.975-1.457,2.615-2.641
            s1.08-2.68,1.318-4.488C174.643,66.347,174.762,64.212,174.762,61.746z"/>
        <path fill="#FFFFFF" d="M187.146,68.275c0.16,3.008,0.768,5.202,1.824,6.577c1.055,1.377,2.463,2.062,4.225,2.062
            c1.021,0,2.008-0.186,2.951-0.553c0.941-0.367,1.879-0.889,2.809-1.561l1.346,2.928c-0.961,0.641-2.025,1.186-3.193,1.633
            s-2.551,0.672-4.15,0.672c-1.439,0-2.744-0.297-3.912-0.889s-2.158-1.424-2.977-2.496c-0.816-1.072-1.447-2.375-1.896-3.912
            c-0.449-1.535-0.674-3.264-0.674-5.184s0.209-3.664,0.625-5.231c0.416-1.566,1.016-2.896,1.801-3.982
            c0.783-1.088,1.729-1.928,2.832-2.521c1.104-0.592,2.344-0.888,3.721-0.888c1.631,0,2.982,0.367,4.057,1.104
            c1.07,0.736,1.928,1.674,2.566,2.809c0.641,1.138,1.088,2.394,1.344,3.769c0.258,1.377,0.385,2.721,0.385,4.033
            c0,0.159,0,0.391,0,0.694c0,0.305-0.018,0.617-0.047,0.937L187.146,68.275L187.146,68.275z M192.475,57.812
            c-1.408,0-2.607,0.567-3.602,1.702c-0.994,1.138-1.553,3.08-1.682,5.832h10.178c-0.064-2.432-0.514-4.295-1.346-5.592
            C195.195,58.458,194.01,57.812,192.475,57.812z"/>
        <path fill="#FFFFFF" d="M218.92,60.308c-0.574-0.479-1.088-0.881-1.535-1.2c-0.447-0.318-0.855-0.56-1.225-0.72
            c-0.369-0.159-0.729-0.271-1.08-0.336c-0.354-0.063-0.736-0.098-1.15-0.098c-1.824,0-3.209,0.801-4.152,2.4
            c-0.943,1.602-1.416,3.95-1.416,7.055c0,3.168,0.424,5.561,1.271,7.178c0.848,1.615,2.119,2.424,3.814,2.424
            c0.512,0,0.979-0.049,1.395-0.145c0.414-0.096,0.84-0.248,1.27-0.457c0.434-0.207,0.881-0.48,1.346-0.814
            c0.463-0.336,0.998-0.744,1.605-1.225l1.346,2.688c-0.896,0.801-1.912,1.496-3.049,2.088s-2.521,0.889-4.15,0.889
            c-2.721,0-4.834-1.057-6.336-3.168c-1.506-2.111-2.258-5.057-2.258-8.832c0-2.016,0.217-3.84,0.648-5.473
            c0.432-1.632,1.039-3.009,1.822-4.127c0.783-1.121,1.754-1.984,2.904-2.593s2.447-0.912,3.889-0.912
            c1.406,0,2.664,0.271,3.768,0.814c1.104,0.545,2.09,1.232,2.953,2.064L218.92,60.308z"/>
        <path fill="#FFFFFF" d="M240.617,78.451l-3.266,1.152l-9.312-12.722v12.48h-3.359V43.985l3.359-0.479v23.279l8.977-11.424
            l3.504,0.815l-8.781,10.513L240.617,78.451z"/>
        <path fill="#FFFFFF" d="M246.041,68.275c0.16,3.008,0.77,5.202,1.824,6.577c1.057,1.377,2.465,2.062,4.225,2.062
            c1.021,0,2.008-0.186,2.951-0.553s1.881-0.889,2.809-1.561l1.346,2.928c-0.961,0.641-2.023,1.186-3.191,1.633
            c-1.17,0.447-2.553,0.672-4.152,0.672c-1.438,0-2.744-0.297-3.91-0.889c-1.17-0.592-2.16-1.424-2.979-2.496
            c-0.816-1.072-1.447-2.375-1.895-3.912c-0.449-1.535-0.674-3.264-0.674-5.184s0.209-3.664,0.625-5.231
            c0.416-1.566,1.016-2.896,1.801-3.982c0.783-1.088,1.729-1.928,2.832-2.521c1.104-0.592,2.344-0.888,3.721-0.888
            c1.633,0,2.982,0.367,4.057,1.104c1.07,0.736,1.928,1.674,2.566,2.809c0.641,1.138,1.088,2.394,1.346,3.769
            c0.256,1.377,0.383,2.721,0.383,4.033c0,0.159,0,0.391,0,0.694c0,0.305-0.018,0.617-0.047,0.937L246.041,68.275L246.041,68.275z
             M251.371,57.812c-1.408,0-2.607,0.567-3.602,1.702c-0.994,1.138-1.553,3.08-1.68,5.832h10.176
            c-0.064-2.432-0.514-4.295-1.344-5.592C254.09,58.458,252.906,57.812,251.371,57.812z"/>
        <path fill="#FFFFFF" d="M273.738,78.883c-0.514,0.258-1.098,0.48-1.754,0.674c-0.654,0.191-1.352,0.287-2.088,0.287
            c-0.641,0-1.256-0.096-1.848-0.287c-0.594-0.193-1.113-0.488-1.562-0.889c-0.447-0.4-0.809-0.92-1.078-1.561
            c-0.271-0.643-0.408-1.408-0.408-2.307V43.986l3.408-0.479v31.535c0,0.736,0.176,1.258,0.527,1.562s0.814,0.457,1.393,0.457
            c0.479,0,0.928-0.072,1.344-0.219c0.416-0.145,0.814-0.311,1.199-0.504L273.738,78.883z"/>
        <path fill="#FFFFFF" d="M303.402,70.435c0,1.438-0.232,2.752-0.695,3.938c-0.465,1.184-1.119,2.199-1.969,3.047
            c-0.848,0.85-1.881,1.506-3.096,1.969c-1.217,0.463-2.576,0.695-4.08,0.695c-0.896,0-1.775-0.07-2.641-0.217
            c-0.863-0.145-1.664-0.336-2.4-0.574c-0.734-0.24-1.406-0.504-2.016-0.793c-0.607-0.287-1.104-0.561-1.488-0.814l1.297-3.168
            c1.023,0.607,2.127,1.135,3.311,1.584c1.186,0.447,2.496,0.672,3.938,0.672c1.824,0,3.256-0.537,4.295-1.607
            c1.041-1.072,1.562-2.473,1.562-4.201c0-0.733-0.08-1.405-0.24-2.016c-0.16-0.607-0.439-1.199-0.84-1.775
            c-0.4-0.575-0.959-1.16-1.68-1.752c-0.723-0.594-1.643-1.256-2.762-1.992c-0.961-0.575-1.736-1.057-2.328-1.438
            c-0.592-0.383-1.088-0.721-1.486-1.008c-0.4-0.289-0.736-0.562-1.008-0.816c-0.271-0.256-0.555-0.561-0.842-0.912
            c-0.641-0.733-1.15-1.59-1.535-2.565c-0.385-0.977-0.576-2.072-0.576-3.289c0-1.248,0.225-2.408,0.674-3.479
            c0.445-1.072,1.07-1.992,1.871-2.762c0.799-0.768,1.76-1.375,2.881-1.822c1.117-0.447,2.365-0.672,3.742-0.672
            c1.602,0,3.08,0.23,4.439,0.695c1.359,0.463,2.408,0.936,3.145,1.416l-1.246,3.022c-0.93-0.543-1.914-0.991-2.953-1.344
            c-1.039-0.354-2.168-0.529-3.385-0.529c-1.631,0-2.92,0.439-3.863,1.32s-1.416,2.119-1.416,3.721c0,1.89,0.607,3.359,1.824,4.416
            c0.256,0.226,0.494,0.425,0.721,0.601c0.223,0.176,0.52,0.393,0.887,0.647c0.369,0.256,0.857,0.576,1.465,0.959
            c0.607,0.386,1.408,0.882,2.4,1.488c0.928,0.576,1.768,1.176,2.52,1.801c0.752,0.623,1.393,1.306,1.92,2.039
            c0.527,0.736,0.938,1.554,1.225,2.447C303.258,68.259,303.402,69.283,303.402,70.435z"/>
        <path fill="#FFFFFF" d="M322.025,60.308c-0.576-0.479-1.09-0.881-1.535-1.2c-0.449-0.318-0.855-0.56-1.225-0.72
            c-0.369-0.159-0.73-0.271-1.08-0.336c-0.354-0.063-0.736-0.098-1.152-0.098c-1.824,0-3.209,0.801-4.15,2.4
            c-0.945,1.602-1.416,3.95-1.416,7.055c0,3.168,0.424,5.561,1.271,7.178c0.848,1.615,2.117,2.424,3.814,2.424
            c0.512,0,0.977-0.049,1.393-0.145c0.414-0.096,0.84-0.248,1.271-0.457c0.432-0.207,0.879-0.48,1.344-0.814
            c0.463-0.336,1-0.744,1.607-1.225l1.344,2.688c-0.896,0.801-1.912,1.496-3.047,2.088c-1.137,0.592-2.521,0.889-4.152,0.889
            c-2.721,0-4.832-1.057-6.336-3.168s-2.256-5.057-2.256-8.832c0-2.016,0.217-3.84,0.646-5.473c0.432-1.632,1.039-3.009,1.824-4.127
            c0.783-1.121,1.752-1.984,2.902-2.593c1.152-0.608,2.447-0.912,3.889-0.912c1.408,0,2.664,0.271,3.77,0.814
            c1.104,0.545,2.088,1.232,2.951,2.064L322.025,60.308z"/>
        <path fill="#FFFFFF" d="M340.408,79.363V62.275c0-1.631-0.23-2.761-0.695-3.384c-0.465-0.625-1.287-0.938-2.473-0.938
            c-0.93,0-1.855,0.248-2.783,0.744s-2.031,1.336-3.312,2.521v18.143h-3.408V43.987l3.408-0.48v14.785
            c1.248-1.248,2.398-2.119,3.457-2.617c1.057-0.494,2.27-0.742,3.646-0.742c2.145,0,3.602,0.605,4.367,1.822
            c0.77,1.217,1.152,3.104,1.152,5.664v16.943h-3.359V79.363z"/>
        <path fill="#FFFFFF" d="M354.57,79.363h-3.361v-18.48c0-0.896-0.055-1.791-0.168-2.688c-0.111-0.896-0.295-1.824-0.551-2.783
            l2.688-0.385c0.064,0.16,0.217,0.475,0.457,0.938c0.238,0.465,0.455,1.256,0.646,2.375c1.406-1.215,2.672-2.088,3.793-2.615
            c1.119-0.526,2.303-0.791,3.551-0.791c1.057,0,1.992,0.207,2.811,0.623c0.814,0.416,1.432,0.992,1.848,1.729
            c0.158,0.287,0.289,0.576,0.385,0.863c0.096,0.289,0.176,0.616,0.24,0.983c0.062,0.369,0.104,0.81,0.119,1.318
            c0.016,0.514,0.023,1.121,0.023,1.824v17.088h-3.359V62.228c0-1.537-0.232-2.634-0.695-3.289
            c-0.465-0.654-1.256-0.982-2.377-0.982c-0.672,0-1.543,0.305-2.615,0.91c-1.072,0.609-2.217,1.395-3.434,2.354V79.363
            L354.57,79.363z"/>
        <path fill="#FFFFFF" d="M376.648,68.275c0.16,3.008,0.768,5.202,1.824,6.577c1.057,1.377,2.463,2.062,4.225,2.062
            c1.021,0,2.008-0.186,2.951-0.553c0.941-0.367,1.881-0.889,2.809-1.561l1.346,2.928c-0.961,0.641-2.025,1.186-3.193,1.633
            s-2.551,0.672-4.15,0.672c-1.439,0-2.744-0.297-3.912-0.889s-2.158-1.424-2.977-2.496c-0.816-1.072-1.447-2.375-1.896-3.912
            c-0.449-1.535-0.674-3.264-0.674-5.184s0.209-3.664,0.625-5.231c0.416-1.566,1.016-2.896,1.801-3.982
            c0.783-1.088,1.729-1.928,2.832-2.521c1.104-0.592,2.344-0.888,3.721-0.888c1.631,0,2.982,0.367,4.057,1.104
            c1.07,0.736,1.928,1.674,2.566,2.809c0.641,1.138,1.088,2.394,1.344,3.769c0.258,1.377,0.385,2.721,0.385,4.033
            c0,0.159,0,0.391,0,0.694c0,0.305-0.018,0.617-0.047,0.937L376.648,68.275L376.648,68.275z M381.977,57.812
            c-1.408,0-2.607,0.567-3.602,1.702c-0.992,1.138-1.553,3.08-1.682,5.832h10.178c-0.064-2.432-0.514-4.295-1.346-5.592
            S383.512,57.812,381.977,57.812z"/>
        <path fill="#FFFFFF" d="M404.344,78.883c-0.514,0.258-1.098,0.48-1.752,0.674c-0.656,0.191-1.355,0.287-2.09,0.287
            c-0.641,0-1.256-0.096-1.85-0.287c-0.592-0.193-1.111-0.488-1.559-0.889c-0.449-0.4-0.811-0.92-1.08-1.561
            c-0.271-0.643-0.408-1.408-0.408-2.307V43.986l3.408-0.479v31.535c0,0.736,0.176,1.258,0.527,1.562s0.814,0.457,1.393,0.457
            c0.479,0,0.928-0.072,1.344-0.219c0.416-0.145,0.816-0.311,1.199-0.504L404.344,78.883z"/>
        <path fill="#FFFFFF" d="M420.424,73.076c0,2.016-0.656,3.682-1.969,4.992s-3.121,1.967-5.424,1.967
            c-1.281,0-2.545-0.189-3.793-0.574s-2.338-0.85-3.266-1.393l1.346-2.689c0.959,0.545,1.928,0.969,2.902,1.271
            c0.979,0.305,1.928,0.455,2.855,0.455c1.217,0,2.168-0.336,2.855-1.008s1.031-1.566,1.031-2.688c0-1.119-0.305-1.943-0.912-2.473
            c-0.607-0.527-1.535-1.109-2.783-1.752c-0.896-0.479-1.729-0.951-2.496-1.416c-0.77-0.464-1.439-0.976-2.018-1.535
            c-0.574-0.562-1.023-1.201-1.344-1.92c-0.318-0.722-0.479-1.576-0.479-2.568c0-0.99,0.168-1.902,0.504-2.734
            s0.814-1.553,1.439-2.159c0.623-0.607,1.375-1.08,2.256-1.416c0.881-0.337,1.85-0.505,2.904-0.505
            c1.088,0,2.166,0.168,3.238,0.505c1.072,0.336,1.977,0.774,2.713,1.317l-1.297,2.545c-0.863-0.512-1.654-0.879-2.375-1.104
            c-0.721-0.224-1.496-0.336-2.328-0.336c-1.152,0-2.062,0.312-2.736,0.938c-0.672,0.623-1.008,1.479-1.008,2.566
            c0,0.705,0.127,1.297,0.385,1.776c0.256,0.479,0.633,0.912,1.127,1.296c0.496,0.385,1.098,0.76,1.801,1.129
            c0.705,0.366,1.488,0.791,2.354,1.271c1.664,0.896,2.832,1.81,3.504,2.734C420.086,70.5,420.424,71.668,420.424,73.076z"/>
        <path fill="#FFFFFF" d="M428.293,68.275c0.16,3.008,0.77,5.202,1.824,6.577c1.057,1.377,2.465,2.062,4.225,2.062
            c1.023,0,2.008-0.186,2.951-0.553s1.881-0.889,2.809-1.561l1.346,2.928c-0.961,0.641-2.023,1.186-3.191,1.633
            c-1.17,0.447-2.553,0.672-4.152,0.672c-1.438,0-2.744-0.297-3.91-0.889c-1.17-0.592-2.16-1.424-2.977-2.496
            c-0.818-1.072-1.449-2.375-1.896-3.912c-0.449-1.535-0.674-3.264-0.674-5.184s0.209-3.664,0.625-5.231
            c0.416-1.566,1.016-2.896,1.801-3.982c0.783-1.088,1.729-1.928,2.832-2.521c1.105-0.592,2.344-0.888,3.721-0.888
            c1.633,0,2.982,0.367,4.057,1.104c1.07,0.736,1.928,1.674,2.566,2.809c0.641,1.138,1.088,2.394,1.346,3.769
            c0.256,1.377,0.383,2.721,0.383,4.033c0,0.159,0,0.391,0,0.694c0,0.305-0.018,0.617-0.047,0.937L428.293,68.275L428.293,68.275z
             M433.621,57.812c-1.408,0-2.607,0.567-3.602,1.702c-0.992,1.138-1.551,3.08-1.68,5.832h10.176
            c-0.062-2.432-0.512-4.295-1.344-5.592C436.342,58.458,435.158,57.812,433.621,57.812z"/>
        <path fill="#FFFFFF" d="M450.613,79.363h-3.359v-18.48c0-0.896-0.057-1.791-0.168-2.688c-0.111-0.896-0.297-1.824-0.553-2.783
            l2.689-0.385c0.062,0.16,0.217,0.475,0.455,0.938c0.24,0.465,0.457,1.256,0.648,2.375c1.406-1.215,2.672-2.088,3.791-2.615
            c1.121-0.526,2.305-0.791,3.553-0.791c1.057,0,1.992,0.207,2.809,0.623c0.814,0.416,1.434,0.992,1.85,1.729
            c0.158,0.287,0.287,0.576,0.383,0.863c0.098,0.289,0.178,0.616,0.24,0.983c0.062,0.369,0.105,0.81,0.119,1.318
            c0.018,0.514,0.023,1.121,0.023,1.824v17.088h-3.359V62.228c0-1.537-0.23-2.634-0.695-3.289c-0.463-0.654-1.256-0.982-2.375-0.982
            c-0.672,0-1.545,0.305-2.617,0.91c-1.07,0.609-2.215,1.395-3.432,2.354L450.613,79.363L450.613,79.363z"/>
    </g>
</g>
</svg>
