<?xml version="1.0" encoding="utf-8"?>
<!-- Generator: Adobe Illustrator 16.0.4, SVG Export Plug-In . SVG Version: 6.00 Build 0)  -->
<!DOCTYPE svg PUBLIC "-//W3C//DTD SVG 1.1//EN" "http://www.w3.org/Graphics/SVG/1.1/DTD/svg11.dtd">
<svg version="1.1" id="Ebene_1" xmlns="http://www.w3.org/2000/svg" xmlns:xlink="http://www.w3.org/1999/xlink" x="0px" y="0px"
     width="489.48px" height="139.129px" viewBox="0 0 489.48 139.129" enable-background="new 0 0 489.48 139.129"
     xml:space="preserve">
<g>
    <rect x="37.498" y="9.403" fill="#FFFFFF" width="22" height="62.948"/>
    <polygon fill="#767676" points="0,92.359 0,139.13 15.875,139.13 15.875,108.234 81.923,108.234 81.923,139.13 97.797,139.13 97.797,92.359     "/>
    <path fill="#767676" d="M48.498,0C25.924,0,7.621,18.302,7.621,40.878c0,22.574,18.303,40.875,40.877,40.875
        c22.575,0,40.877-18.302,40.877-40.875C89.375,18.302,71.073,0,48.498,0z M53.89,67.478H42.946V32.267h10.943L53.89,67.478
        L53.89,67.478z M48.346,24.947c-3.456,0-5.688-2.449-5.688-5.474c0-3.098,2.305-5.474,5.832-5.474s5.688,2.376,5.761,5.474
        C54.249,22.497,52.017,24.947,48.346,24.947z"/>
    <polygon fill="#767676" points="489.481,105.64 142.224,105.64 105.25,63.118 142.224,20.599 489.481,20.599     "/>
    <path fill="#FFFFFF" d="M167.017,45.304c4.16,0,7.207,1.369,9.146,4.104c1.937,2.735,2.904,6.823,2.904,12.266
        c0,5.982-1.059,10.414-3.172,13.294c-2.109,2.881-5.312,4.32-9.601,4.32h-5.711V45.305L167.017,45.304L167.017,45.304z
         M175.129,61.671c0-2.238-0.118-4.189-0.358-5.854c-0.238-1.664-0.688-3.033-1.344-4.105c-0.656-1.07-1.566-1.871-2.734-2.398
        c-1.168-0.526-2.682-0.791-4.535-0.791h-1.873v27.552h2.306c1.729,0,3.145-0.287,4.247-0.862c1.104-0.576,1.976-1.457,2.615-2.642
        c0.642-1.185,1.08-2.681,1.318-4.488C175.01,66.272,175.129,64.138,175.129,61.671z"/>
    <path fill="#FFFFFF" d="M187.514,68.2c0.16,3.008,0.77,5.201,1.824,6.576c1.055,1.377,2.463,2.063,4.223,2.063
        c1.022,0,2.01-0.187,2.953-0.554c0.942-0.366,1.879-0.89,2.809-1.562l1.346,2.929c-0.961,0.642-2.024,1.187-3.192,1.633
        s-2.551,0.672-4.15,0.672c-1.438,0-2.744-0.297-3.91-0.889c-1.17-0.593-2.159-1.425-2.979-2.496
        c-0.816-1.072-1.447-2.375-1.896-3.912c-0.446-1.535-0.672-3.265-0.672-5.185s0.207-3.664,0.623-5.231
        c0.416-1.566,1.019-2.896,1.804-3.982c0.78-1.088,1.729-1.928,2.829-2.521c1.105-0.592,2.347-0.888,3.724-0.888
        c1.631,0,2.979,0.367,4.055,1.104c1.072,0.736,1.928,1.674,2.568,2.809c0.641,1.138,1.088,2.394,1.344,3.769
        c0.256,1.377,0.385,2.721,0.385,4.033c0,0.159,0,0.391,0,0.694c0,0.305-0.018,0.617-0.049,0.937H187.514L187.514,68.2z
         M192.843,57.738c-1.408,0-2.607,0.567-3.603,1.702c-0.994,1.138-1.551,3.08-1.682,5.832h10.178
        c-0.063-2.432-0.514-4.295-1.346-5.592C195.56,58.384,194.377,57.738,192.843,57.738z"/>
    <path fill="#FFFFFF" d="M219.289,60.234c-0.575-0.479-1.09-0.881-1.537-1.2c-0.446-0.318-0.854-0.56-1.223-0.72
        c-0.369-0.159-0.729-0.271-1.08-0.336c-0.354-0.063-0.738-0.098-1.151-0.098c-1.824,0-3.209,0.801-4.152,2.4
        c-0.943,1.602-1.414,3.95-1.414,7.055c0,3.169,0.424,5.562,1.271,7.179c0.849,1.615,2.117,2.424,3.814,2.424
        c0.512,0,0.979-0.049,1.395-0.146c0.412-0.096,0.841-0.247,1.271-0.456c0.432-0.207,0.879-0.48,1.344-0.814
        c0.463-0.336,1-0.743,1.607-1.225l1.344,2.688c-0.895,0.801-1.912,1.494-3.047,2.088c-1.137,0.592-2.521,0.889-4.152,0.889
        c-2.721,0-4.832-1.057-6.336-3.168s-2.256-5.057-2.256-8.832c0-2.016,0.217-3.84,0.648-5.473c0.432-1.632,1.039-3.009,1.821-4.127
        c0.783-1.121,1.752-1.984,2.902-2.593c1.152-0.608,2.449-0.912,3.889-0.912c1.408,0,2.664,0.271,3.771,0.814
        c1.104,0.545,2.088,1.232,2.953,2.064L219.289,60.234z"/>
    <path fill="#FFFFFF" d="M240.984,78.375l-3.264,1.152l-9.312-12.722v12.48h-3.358V43.91l3.358-0.479v23.279l8.978-11.424
        l3.504,0.815l-8.781,10.513L240.984,78.375z"/>
    <path fill="#FFFFFF" d="M246.41,68.2c0.16,3.008,0.769,5.201,1.824,6.576c1.055,1.377,2.463,2.063,4.223,2.063
        c1.023,0,2.009-0.187,2.953-0.554c0.941-0.366,1.879-0.89,2.808-1.562l1.346,2.929c-0.961,0.642-2.023,1.187-3.191,1.633
        s-2.551,0.672-4.151,0.672c-1.438,0-2.744-0.297-3.91-0.889c-1.17-0.593-2.158-1.425-2.978-2.496
        c-0.817-1.072-1.448-2.375-1.896-3.912c-0.449-1.535-0.672-3.265-0.672-5.185s0.207-3.664,0.623-5.231
        c0.416-1.566,1.016-2.896,1.801-3.982c0.783-1.088,1.729-1.928,2.832-2.521c1.104-0.592,2.344-0.888,3.721-0.888
        c1.631,0,2.982,0.367,4.058,1.104c1.069,0.736,1.928,1.674,2.565,2.809c0.642,1.138,1.088,2.394,1.344,3.769
        c0.259,1.377,0.388,2.721,0.388,4.033c0,0.159,0,0.391,0,0.694c0,0.305-0.021,0.617-0.049,0.937H246.41L246.41,68.2z
         M251.738,57.738c-1.408,0-2.606,0.567-3.602,1.702c-0.994,1.138-1.554,3.08-1.683,5.832h10.179
        c-0.064-2.432-0.515-4.295-1.347-5.592C254.457,58.384,253.273,57.738,251.738,57.738z"/>
    <path fill="#FFFFFF" d="M274.105,78.808c-0.514,0.258-1.098,0.479-1.752,0.674c-0.656,0.191-1.355,0.287-2.088,0.287
        c-0.644,0-1.258-0.096-1.853-0.287c-0.592-0.192-1.108-0.487-1.559-0.889c-0.449-0.4-0.81-0.92-1.08-1.562
        c-0.271-0.642-0.408-1.408-0.408-2.306V43.911l3.408-0.479v31.535c0,0.736,0.176,1.258,0.527,1.562s0.813,0.457,1.393,0.457
        c0.48,0,0.928-0.072,1.344-0.219c0.416-0.145,0.816-0.312,1.199-0.504L274.105,78.808z"/>
    <path fill="#FFFFFF" d="M303.769,70.361c0,1.438-0.23,2.752-0.693,3.938c-0.465,1.185-1.121,2.199-1.969,3.047
        c-0.85,0.852-1.883,1.506-3.098,1.969c-1.218,0.465-2.576,0.695-4.08,0.695c-0.896,0-1.773-0.07-2.642-0.217
        c-0.862-0.145-1.664-0.336-2.399-0.574c-0.734-0.24-1.408-0.504-2.017-0.793c-0.606-0.287-1.104-0.561-1.487-0.812l1.297-3.169
        c1.022,0.606,2.127,1.136,3.312,1.585c1.185,0.445,2.496,0.672,3.937,0.672c1.824,0,3.256-0.537,4.295-1.607
        c1.041-1.072,1.562-2.473,1.562-4.201c0-0.732-0.08-1.404-0.239-2.016c-0.16-0.607-0.438-1.199-0.841-1.775
        c-0.399-0.575-0.959-1.16-1.68-1.752c-0.723-0.594-1.643-1.256-2.762-1.992c-0.961-0.575-1.734-1.057-2.328-1.438
        c-0.592-0.383-1.088-0.721-1.486-1.008c-0.399-0.289-0.735-0.562-1.008-0.816c-0.271-0.254-0.555-0.561-0.842-0.912
        c-0.641-0.733-1.15-1.59-1.537-2.565c-0.383-0.978-0.572-2.072-0.572-3.289c0-1.248,0.224-2.408,0.672-3.479
        c0.447-1.072,1.07-1.992,1.871-2.762c0.8-0.768,1.761-1.375,2.882-1.822c1.118-0.447,2.366-0.672,3.743-0.672
        c1.601,0,3.078,0.23,4.438,0.695c1.358,0.463,2.408,0.936,3.146,1.416l-1.248,3.022c-0.93-0.543-1.914-0.991-2.952-1.344
        c-1.039-0.354-2.168-0.529-3.384-0.529c-1.633,0-2.922,0.439-3.864,1.32c-0.943,0.881-1.416,2.119-1.416,3.721
        c0,1.89,0.606,3.359,1.823,4.416c0.257,0.226,0.496,0.425,0.722,0.601c0.225,0.176,0.521,0.393,0.887,0.647
        c0.369,0.256,0.857,0.576,1.467,0.959c0.605,0.386,1.406,0.882,2.398,1.488c0.93,0.576,1.77,1.176,2.521,1.801
        c0.752,0.623,1.394,1.306,1.92,2.039c0.525,0.736,0.937,1.554,1.226,2.447C303.625,68.185,303.769,69.208,303.769,70.361z"/>
    <path fill="#FFFFFF" d="M321.24,78.136c-0.832,0.545-1.776,0.953-2.832,1.226c-1.059,0.271-2.049,0.407-2.979,0.407
        c-1.92,0-3.326-0.526-4.226-1.584c-0.896-1.057-1.344-2.592-1.344-4.606V58.362h-3.695V55.53h3.695v-7.296l3.359-0.479v7.775h7.295
        l-0.672,2.831h-6.623v14.257c0,0.545,0.018,1.071,0.049,1.584c0.029,0.515,0.137,0.961,0.311,1.345
        c0.177,0.385,0.455,0.696,0.843,0.938c0.385,0.24,0.909,0.359,1.584,0.359c0.641,0,1.284-0.104,1.94-0.312
        c0.656-0.207,1.465-0.553,2.424-1.031L321.24,78.136z"/>
    <path fill="#FFFFFF" d="M326.664,68.2c0.16,3.008,0.769,5.201,1.824,6.576c1.058,1.377,2.465,2.063,4.226,2.063
        c1.022,0,2.008-0.187,2.95-0.554c0.943-0.366,1.882-0.89,2.81-1.562l1.346,2.929c-0.959,0.642-2.022,1.187-3.191,1.633
        c-1.17,0.446-2.553,0.672-4.151,0.672c-1.438,0-2.742-0.297-3.91-0.889c-1.168-0.593-2.16-1.425-2.979-2.496
        c-0.817-1.072-1.446-2.375-1.895-3.912c-0.449-1.535-0.676-3.265-0.676-5.185s0.209-3.664,0.625-5.231
        c0.416-1.566,1.018-2.896,1.803-3.982c0.781-1.088,1.728-1.928,2.832-2.521c1.104-0.592,2.344-0.888,3.719-0.888
        c1.633,0,2.982,0.367,4.058,1.104c1.071,0.736,1.928,1.674,2.567,2.809c0.64,1.138,1.086,2.394,1.345,3.769
        c0.256,1.377,0.383,2.721,0.383,4.033c0,0.159,0,0.391,0,0.694c0,0.305-0.017,0.617-0.047,0.937H326.664L326.664,68.2z
         M331.992,57.738c-1.408,0-2.606,0.567-3.602,1.702c-0.992,1.138-1.554,3.08-1.681,5.832h10.177
        c-0.062-2.432-0.513-4.295-1.345-5.592C334.714,58.384,333.529,57.738,331.992,57.738z"/>
    <path fill="#FFFFFF" d="M354.359,78.808c-0.512,0.258-1.096,0.479-1.752,0.674c-0.656,0.191-1.352,0.287-2.088,0.287
        c-0.642,0-1.256-0.096-1.849-0.287c-0.594-0.192-1.112-0.487-1.562-0.889c-0.447-0.4-0.809-0.92-1.08-1.562
        c-0.27-0.642-0.408-1.408-0.408-2.306V43.911l3.408-0.479v31.535c0,0.736,0.176,1.258,0.529,1.562
        c0.352,0.305,0.812,0.457,1.391,0.457c0.48,0,0.93-0.072,1.346-0.219c0.416-0.145,0.814-0.312,1.199-0.504L354.359,78.808z"/>
    <path fill="#FFFFFF" d="M367.177,78.808c-0.515,0.258-1.099,0.479-1.752,0.674c-0.656,0.191-1.354,0.287-2.089,0.287
        c-0.641,0-1.258-0.096-1.85-0.287c-0.592-0.192-1.111-0.487-1.561-0.889c-0.449-0.4-0.81-0.92-1.08-1.562
        c-0.271-0.642-0.406-1.408-0.406-2.306V43.911l3.406-0.479v31.535c0,0.736,0.178,1.258,0.526,1.562
        c0.353,0.305,0.814,0.457,1.394,0.457c0.479,0,0.93-0.072,1.346-0.219c0.416-0.145,0.814-0.312,1.197-0.504L367.177,78.808z"/>
    <path fill="#FFFFFF" d="M371.974,79.288V58.361h-3.74v-2.832h7.104v23.76L371.974,79.288L371.974,79.288z M376.055,46.697
        c0,0.801-0.271,1.473-0.812,2.016c-0.545,0.547-1.188,0.816-1.92,0.816c-0.771,0-1.416-0.271-1.945-0.816
        c-0.526-0.543-0.791-1.215-0.791-2.016c0-0.8,0.265-1.472,0.791-2.017c0.529-0.543,1.191-0.815,1.992-0.815
        c0.734,0,1.369,0.272,1.896,0.815C375.791,45.226,376.055,45.897,376.055,46.697z"/>
    <path fill="#FFFFFF" d="M386.425,79.288h-3.361V60.809c0-0.896-0.055-1.791-0.168-2.688c-0.109-0.896-0.295-1.824-0.551-2.783
        l2.688-0.385c0.064,0.16,0.217,0.475,0.455,0.938c0.24,0.465,0.457,1.256,0.648,2.375c1.405-1.215,2.672-2.088,3.793-2.615
        c1.119-0.526,2.303-0.791,3.551-0.791c1.057,0,1.992,0.207,2.809,0.623c0.818,0.416,1.435,0.992,1.851,1.729
        c0.16,0.287,0.289,0.576,0.385,0.863c0.096,0.289,0.176,0.616,0.24,0.983c0.061,0.369,0.104,0.81,0.119,1.318
        c0.016,0.514,0.021,1.121,0.021,1.824v17.088h-3.357V62.154c0-1.537-0.231-2.634-0.694-3.289c-0.465-0.654-1.256-0.982-2.377-0.982
        c-0.672,0-1.543,0.305-2.615,0.91c-1.072,0.609-2.217,1.395-3.432,2.354L386.425,79.288L386.425,79.288z"/>
    <path fill="#FFFFFF" d="M413.398,54.856c1.023,0,1.936,0.168,2.736,0.505c0.799,0.336,1.645,0.84,2.543,1.512
        c0.159-0.479,0.311-0.896,0.457-1.248c0.145-0.353,0.248-0.574,0.311-0.672l2.689,0.385c-0.256,0.959-0.441,1.889-0.555,2.783
        c-0.109,0.896-0.168,1.793-0.168,2.688v8.881c0,2.562,0.059,4.729,0.168,6.505c0.11,1.774,0.168,3.397,0.168,4.87
        c0,5.791-2.701,8.688-8.109,8.688c-1.312,0-2.603-0.189-3.863-0.574c-1.266-0.385-2.41-0.85-3.434-1.393l1.198-2.832
        c0.959,0.512,1.982,0.928,3.072,1.248c1.086,0.316,2.031,0.479,2.832,0.479c1.855,0,3.146-0.473,3.863-1.416
        c0.721-0.941,1.08-2.407,1.08-4.393c0-0.479-0.009-0.881-0.023-1.199c-0.018-0.32-0.033-0.703-0.049-1.15s-0.031-0.902-0.049-1.367
        c-0.017-0.464-0.023-0.842-0.023-1.127c-0.959,0.861-1.94,1.551-2.949,2.062c-1.01,0.514-2.121,0.771-3.336,0.771
        c-2.209,0-3.938-0.983-5.186-2.953c-1.248-1.968-1.873-4.711-1.873-8.23c0-4.225,0.736-7.416,2.209-9.576
        C408.582,55.937,410.678,54.856,413.398,54.856z M412.582,75.64c0.832,0,1.681-0.207,2.545-0.623
        c0.863-0.416,1.841-1.088,2.929-2.019V59.561c-0.832-0.479-1.617-0.864-2.353-1.151c-0.735-0.289-1.426-0.433-2.063-0.433
        c-1.633,0-2.89,0.734-3.769,2.207c-0.881,1.474-1.319,3.713-1.319,6.722c0,2.912,0.312,5.096,0.938,6.551
        C410.111,74.913,411.142,75.64,412.582,75.64z"/>
    <path fill="#FFFFFF" d="M431.303,68.2c0.16,3.008,0.77,5.201,1.824,6.576c1.055,1.377,2.463,2.063,4.223,2.063
        c1.023,0,2.01-0.187,2.953-0.554c0.943-0.366,1.879-0.89,2.809-1.562l1.347,2.929c-0.961,0.642-2.025,1.187-3.193,1.633
        s-2.551,0.672-4.15,0.672c-1.438,0-2.743-0.297-3.909-0.889c-1.171-0.593-2.16-1.425-2.979-2.496
        c-0.816-1.072-1.447-2.375-1.896-3.912c-0.447-1.535-0.673-3.265-0.673-5.185s0.207-3.664,0.623-5.231
        c0.416-1.566,1.019-2.896,1.802-3.982c0.782-1.088,1.729-1.928,2.832-2.521c1.104-0.592,2.346-0.888,3.723-0.888
        c1.631,0,2.979,0.367,4.055,1.104c1.072,0.736,1.929,1.674,2.568,2.809c0.641,1.138,1.088,2.394,1.344,3.769
        c0.256,1.377,0.385,2.721,0.385,4.033c0,0.159,0,0.391,0,0.694c0,0.305-0.018,0.617-0.049,0.937H431.303L431.303,68.2z
         M436.632,57.738c-1.408,0-2.609,0.567-3.603,1.702c-0.994,1.138-1.553,3.08-1.682,5.832h10.178
        c-0.063-2.432-0.514-4.295-1.346-5.592C439.349,58.384,438.167,57.738,436.632,57.738z"/>
    <path fill="#FFFFFF" d="M453.622,79.288h-3.359V60.809c0-0.896-0.057-1.791-0.168-2.688c-0.113-0.896-0.297-1.824-0.553-2.783
        l2.688-0.385c0.064,0.16,0.219,0.475,0.457,0.938c0.24,0.465,0.455,1.256,0.648,2.375c1.405-1.215,2.672-2.088,3.791-2.615
        c1.121-0.526,2.305-0.791,3.553-0.791c1.055,0,1.992,0.207,2.811,0.623c0.812,0.416,1.433,0.992,1.849,1.729
        c0.158,0.287,0.287,0.576,0.383,0.863c0.098,0.289,0.176,0.616,0.24,0.983c0.062,0.369,0.104,0.81,0.121,1.318
        c0.016,0.514,0.021,1.121,0.021,1.824v17.088h-3.356V62.154c0-1.537-0.232-2.634-0.697-3.289c-0.463-0.654-1.256-0.982-2.375-0.982
        c-0.672,0-1.545,0.305-2.617,0.91c-1.072,0.609-2.215,1.395-3.432,2.354L453.622,79.288L453.622,79.288z"/>
</g>
</svg>
