<?xml version="1.0" encoding="UTF-8" standalone="no"?>
<!-- Generator: Adobe Illustrator 15.0.0, SVG Export Plug-In . SVG Version: 6.00 Build 0)  -->

<svg
   xmlns:dc="http://purl.org/dc/elements/1.1/"
   xmlns:cc="http://creativecommons.org/ns#"
   xmlns:rdf="http://www.w3.org/1999/02/22-rdf-syntax-ns#"
   xmlns:svg="http://www.w3.org/2000/svg"
   xmlns="http://www.w3.org/2000/svg"
   xmlns:sodipodi="http://sodipodi.sourceforge.net/DTD/sodipodi-0.dtd"
   xmlns:inkscape="http://www.inkscape.org/namespaces/inkscape"
   version="1.1"
   x="0px"
   y="0px"
   width="40px"
   height="40px"
   viewBox="0 0 40 40"
   enable-background="new 0 0 40 40"
   xml:space="preserve"
   id="svg2"
   inkscape:version="0.48.3.1 r9886"
   sodipodi:docname="krankenhaus.svg"
   inkscape:export-filename="M:\Themen\Icons\Icons_MRH\Grundkonzept\Icons_MRH_neues_Konzept\neues_konzept_siedlung\krankenhaus.png"
   inkscape:export-xdpi="90"
   inkscape:export-ydpi="90"><metadata
   id="metadata24"><rdf:RDF><cc:Work
       rdf:about=""><dc:format>image/svg+xml</dc:format><dc:type
         rdf:resource="http://purl.org/dc/dcmitype/StillImage" /><dc:title></dc:title></cc:Work></rdf:RDF></metadata><defs
   id="defs22" /><sodipodi:namedview
   pagecolor="#ffffff"
   bordercolor="#666666"
   borderopacity="1"
   objecttolerance="10"
   gridtolerance="10"
   guidetolerance="10"
   inkscape:pageopacity="0"
   inkscape:pageshadow="2"
   inkscape:window-width="1284"
   inkscape:window-height="946"
   id="namedview20"
   showgrid="false"
   inkscape:zoom="18.65"
   inkscape:cx="17.405518"
   inkscape:cy="20"
   inkscape:window-x="1306"
   inkscape:window-y="18"
   inkscape:window-maximized="0"
   inkscape:current-layer="svg2" />
<g
   id="Ebene_7"
   transform="translate(-0.0536193,0.16085791)">
	<path
   clip-rule="evenodd"
   stroke-miterlimit="10"
   d="m 37.162,38.234 c 0,0.38 -0.392,0.703 -0.782,0.703 L 5.313,38.875 C 4.926,38.875 4.188,38.38 4.188,38 L 4.125,20.063 C 4.125,19.403 2.062,19 2.062,19 c 0,0 17.133,-17.334 17.387,-17.584 0.335,-0.32 0.79,-0.218 1.006,-0.009 0.166,0.16 17.905,17.551 17.905,17.551 0,0 -1.296,0.499 -1.254,1.117 l 0.056,18.159 z"
   id="path5"
   style="fill:#fefefe;fill-opacity:1;fill-rule:evenodd;stroke:#d2d2d2;stroke-width:2;stroke-miterlimit:10;stroke-opacity:1"
   inkscape:connector-curvature="0" />
</g>
<g
   id="Ebene_9"
   transform="matrix(0.9999821,0.00598341,-0.00598341,0.9999821,-0.03715037,-0.1812164)">
	<polygon
   clip-rule="evenodd"
   points="5.486,20 21.575,3.933 20,2.369 4.201,18.625 "
   id="polygon8"
   style="fill:#f2f2f2;fill-rule:evenodd" />
</g>
<g
   id="Ebene_8">
	<path
   clip-rule="evenodd"
   d="m 36.103,37.915 c -0.757338,0.007 -1.168297,0.035 -1.532289,0.035 L 5.5883338,37.92 C 4.9973361,38 5.1783291,37.613983 5.1803105,37.5 L 5.2871788,31.352381 C 5.2906897,31.150411 7.2419537,30.47 7.2419537,30.47 c 0,0 12.2906023,-3.924 12.5949073,-4.022 0.311155,-0.098 0.733855,-0.065 0.934442,-0.004 0.200587,0.064 14.203517,4.568 14.203517,4.568 0,0 1.090019,0.233 1.127201,0.425 l 0,6.478 z"
   id="path11"
   inkscape:connector-curvature="0"
   style="fill:#f0f0f0;fill-opacity:1;fill-rule:evenodd"
   sodipodi:nodetypes="cccssccccccc" />
</g>

<rect
   style="opacity:0.98999999;fill:#c30000;fill-opacity:1;stroke:#c30000;stroke-width:0.11641881;stroke-miterlimit:4;stroke-opacity:1;stroke-dasharray:none"
   id="rect3769"
   width="19.151276"
   height="4.9204707"
   x="10.827242"
   y="22.207577" /><rect
   style="opacity:0.98999999;fill:#c30000;fill-opacity:1;stroke:#c30000;stroke-width:0.11641881;stroke-miterlimit:4;stroke-opacity:1;stroke-dasharray:none"
   id="rect3771"
   width="5.0987158"
   height="18.555511"
   x="17.791342"
   y="15.567905" /><path
   style="fill:none;stroke:#000000;stroke-width:2.82437515;stroke-linecap:butt;stroke-linejoin:round;stroke-miterlimit:4;stroke-opacity:1;stroke-dasharray:none"
   d="M 0.93235981,19.919298 19.841435,1.8927755 39.022189,19.815995"
   id="path3773"
   inkscape:connector-curvature="0" /></svg>
