<?xml version="1.0" encoding="utf-8"?>
<!-- Generator: Adobe Illustrator 22.1.0, SVG Export Plug-In . SVG Version: 6.00 Build 0)  -->
<svg version="1.1" id="Ebene_1" xmlns="http://www.w3.org/2000/svg" xmlns:xlink="http://www.w3.org/1999/xlink" x="0px" y="0px"
	 viewBox="0 0 185 85.5" style="enable-background:new 0 0 185 85.5;" xml:space="preserve">
<style type="text/css">
	.st0{fill:#E10019;}
	.st1{fill:#005CA9;}
</style>
<g>
	<path class="st0" d="M24.9,0.3v24.4h-5V5.3l-5.7,19.5H9.7L4.1,5.3v19.4h-4V0.3h7.2l5.2,18.2l5.2-18.2H24.9z"/>
	<path class="st0" d="M42,18H34L32,24.7h-5.1L35,0.3h6.4l8.3,24.4h-5.6L42,18z M41.1,14.8L37.9,4.3l-3,10.5H41.1z"/>
	<path class="st0" d="M59.8,25c-1.4,0-2.6-0.1-3.6-0.3c-1.1-0.2-1.9-0.5-2.7-0.8c-0.9-0.3-1.6-0.7-2.3-1.1l-0.4-4.6
		c0.7,0.6,1.5,1.1,2.4,1.6c0.8,0.4,1.7,0.8,2.8,1.1c1,0.3,2.2,0.5,3.4,0.5c1.5,0,2.6-0.3,3.3-0.8c0.7-0.5,1.1-1.3,1.1-2.2
		c0-1-0.4-1.7-1.1-2.1c-0.7-0.5-1.7-0.9-3-1.3l-2.6-0.8c-0.9-0.3-1.7-0.6-2.4-1c-0.7-0.4-1.4-0.8-1.9-1.4c-0.5-0.5-0.9-1.2-1.2-1.9
		c-0.3-0.7-0.4-1.6-0.4-2.6c0-1.1,0.2-2.1,0.5-3c0.4-0.9,0.9-1.7,1.6-2.3C54,1.5,54.9,0.9,56,0.6C57.1,0.2,58.4,0,59.9,0
		c1.4,0,2.5,0.1,3.5,0.3c1,0.2,1.8,0.4,2.5,0.7c0.8,0.3,1.4,0.6,1.9,1l0.5,4.9c-0.6-0.6-1.4-1.1-2.2-1.6c-0.8-0.4-1.6-0.8-2.6-1.1
		c-1-0.3-2.1-0.5-3.3-0.5c-1.4,0-2.4,0.3-3,0.8c-0.7,0.5-1,1.3-1,2.2c0,0.9,0.3,1.6,0.9,2c0.6,0.5,1.5,0.9,2.5,1.2l2.7,0.7
		c1,0.3,1.8,0.6,2.6,1c0.8,0.4,1.5,0.8,2.1,1.4c0.6,0.5,1,1.2,1.3,1.9c0.3,0.7,0.5,1.6,0.5,2.7c0,1.1-0.2,2.1-0.6,3
		c-0.4,0.9-1,1.7-1.7,2.3c-0.8,0.6-1.7,1.2-2.8,1.5C62.7,24.8,61.3,25,59.8,25z"/>
	<path class="st0" d="M82.4,3.6v21.1H77V3.6h-7.2l0.3-3.3h19.1l0.3,3.3H82.4z"/>
	<path class="st0" d="M108.4,21.3l-0.4,3.4H91.9V0.3h15.9l0.4,3.4h-11v7h9.6v3.1h-9.6v7.5H108.4z"/>
	<path class="st0" d="M120.4,14.1h-2.9v10.7h-5.3V0.3h11.3c2.2,0,4,0.6,5.4,1.7c1.4,1.1,2,2.8,2,5c0,1.8-0.5,3.3-1.6,4.4
		c-1,1.1-2.4,1.8-4,2.2l6.3,11.2H126L120.4,14.1z M117.5,10.9h4.4c1.1,0,2-0.3,2.7-1c0.7-0.6,1.1-1.6,1.1-2.7c0-1.2-0.3-2.1-1-2.7
		c-0.7-0.6-1.6-0.9-2.8-0.9h-4.4V10.9z"/>
</g>
<g>
	<polygon class="st1" points="53.4,32.3 0,32.2 53.3,85.5 	"/>
</g>
<polygon class="st0" points="138.4,24.7 163.1,24.7 138.4,0.1 "/>
<g>
	<path class="st1" d="M71.4,32.3c2.2,0,3.9,0.5,5.2,1.6c1.3,1.1,1.9,2.7,1.9,4.9c0,1-0.2,2-0.5,2.8c-0.3,0.8-0.8,1.5-1.5,2.1
		c-0.6,0.6-1.4,1-2.3,1.3c-0.9,0.3-1.8,0.4-2.9,0.5l-5.3,0l0,10.5l-5.1,0l0-23.5L71.4,32.3z M69.9,42.4c1.2,0,2.1-0.3,2.7-0.9
		c0.6-0.6,1-1.5,0.9-2.7c0-1.2-0.3-2.1-1-2.6c-0.6-0.5-1.5-0.8-2.7-0.8l-3.9,0l0,7L69.9,42.4z"/>
	<path class="st1" d="M91.2,56.1c-1.6,0-3.1-0.2-4.5-0.7c-1.4-0.5-2.5-1.2-3.5-2.2c-1-1-1.7-2.2-2.3-3.8c-0.5-1.5-0.8-3.4-0.8-5.5
		c0-2.1,0.3-3.9,0.8-5.4c0.6-1.5,1.3-2.8,2.3-3.8c1-1,2.2-1.7,3.6-2.2c1.4-0.5,2.9-0.7,4.5-0.7c1.6,0,3.1,0.2,4.5,0.6
		c1.4,0.4,2.5,1.1,3.5,2.1c1,1,1.7,2.2,2.3,3.7c0.5,1.5,0.8,3.4,0.8,5.5c0,2.2-0.3,4-0.9,5.6c-0.6,1.5-1.4,2.8-2.4,3.8
		c-1,1-2.2,1.7-3.6,2.2C94.3,55.9,92.8,56.1,91.2,56.1z M91.3,52.9c0.9,0,1.7-0.2,2.4-0.5s1.3-0.9,1.8-1.6c0.5-0.7,0.9-1.6,1.1-2.8
		c0.3-1.1,0.4-2.5,0.4-4.2c0-1.6-0.1-3-0.4-4.1c-0.3-1.1-0.6-2-1.1-2.7c-0.5-0.7-1.1-1.2-1.8-1.5c-0.7-0.3-1.5-0.5-2.4-0.5
		c-0.9,0-1.7,0.2-2.4,0.5c-0.7,0.3-1.3,0.8-1.8,1.6c-0.5,0.7-0.9,1.6-1.1,2.8c-0.3,1.1-0.4,2.5-0.4,4.1c0,1.6,0.1,3,0.4,4.1
		c0.3,1.1,0.6,2.1,1.1,2.8c0.5,0.7,1.1,1.2,1.8,1.6C89.6,52.8,90.4,52.9,91.3,52.9z"/>
	<path class="st1" d="M114.1,45.4l-2.8,0l0,10.3l-5.1,0l0-23.5l10.9,0c2.2,0,3.9,0.5,5.2,1.6c1.3,1.1,2,2.7,2,4.8
		c0,1.8-0.5,3.2-1.5,4.2c-1,1.1-2.3,1.8-3.9,2.1l6.1,10.7l-5.4,0L114.1,45.4z M111.3,42.4l4.3,0c1.1,0,1.9-0.3,2.6-0.9
		c0.7-0.6,1.1-1.5,1-2.7c0-1.2-0.3-2.1-1-2.6c-0.6-0.6-1.5-0.9-2.7-0.9l-4.3,0L111.3,42.4z"/>
	<path class="st1" d="M137.9,35.3l0,20.4l-5.2,0l0-20.4l-6.9,0l0.3-3.2l18.4,0l0.3,3.2L137.9,35.3z"/>
	<path class="st1" d="M158.3,49.1l-7.8,0l-1.9,6.5l-4.9,0l7.8-23.5l6.2,0l8,23.5l-5.4,0L158.3,49.1z M157.4,46l-3.1-10.2l-2.9,10.2
		L157.4,46z"/>
	<path class="st1" d="M185,52.3l-0.4,3.3l-14.9,0l0-23.5l5.2,0l0,20.2L185,52.3z"/>
</g>
</svg>
